<svg width="696" height="700" viewBox="0 0 696 700" fill="none" xmlns="http://www.w3.org/2000/svg">
<path d="M602.79 328.043C602.79 175.909 479.209 52.5804 326.763 52.5804C174.317 52.5804 50.7357 175.909 50.7357 328.043C50.7357 480.177 174.317 603.505 326.763 603.505C479.209 603.505 602.79 480.177 602.79 328.043Z" fill="#72FF4F" fill-opacity="0.2"/>
<g filter="url(#filter0_d_206_100)">
<ellipse cx="607.583" cy="350.918" rx="38.3371" ry="38.2835" fill="#090E16"/>
</g>
<g clip-path="url(#clip0_206_100)">
<path fill-rule="evenodd" clip-rule="evenodd" d="M623.756 331.776H591.409C589.755 331.776 588.414 333.116 588.414 334.767V367.069C588.414 368.721 589.755 370.06 591.409 370.06H623.756C625.41 370.06 626.751 368.721 626.751 367.069V334.767C626.751 333.116 625.41 331.776 623.756 331.776ZM610.955 365.887V361.756C611.705 362.385 612.52 362.856 613.4 363.17C614.279 363.484 615.168 363.641 616.065 363.641C616.591 363.641 617.05 363.594 617.442 363.499C617.835 363.404 618.162 363.273 618.425 363.105C618.688 362.938 618.885 362.74 619.014 362.512C619.143 362.284 619.208 362.036 619.208 361.769C619.208 361.408 619.105 361.085 618.898 360.801C618.691 360.517 618.408 360.255 618.05 360.014C617.692 359.773 617.268 359.541 616.776 359.317C616.285 359.093 615.754 358.865 615.185 358.633C613.736 358.031 612.656 357.295 611.945 356.426C611.233 355.557 610.877 354.507 610.877 353.276C610.877 352.313 611.071 351.484 611.459 350.792C611.847 350.099 612.376 349.529 613.044 349.081C613.712 348.634 614.486 348.305 615.366 348.094C616.246 347.883 617.177 347.778 618.16 347.778C619.126 347.778 619.982 347.836 620.728 347.952C621.474 348.068 622.162 348.247 622.791 348.488V352.347C622.481 352.132 622.142 351.943 621.776 351.779C621.409 351.616 621.032 351.48 620.644 351.373C620.256 351.265 619.87 351.185 619.486 351.134C619.102 351.082 618.738 351.056 618.393 351.056C617.919 351.056 617.488 351.101 617.1 351.192C616.711 351.282 616.384 351.409 616.116 351.573C615.849 351.736 615.642 351.932 615.495 352.16C615.349 352.388 615.276 352.644 615.276 352.928C615.276 353.238 615.357 353.515 615.521 353.76C615.685 354.006 615.918 354.238 616.22 354.457C616.522 354.677 616.888 354.892 617.319 355.103C617.751 355.314 618.238 355.531 618.781 355.755C619.523 356.064 620.189 356.393 620.78 356.742C621.371 357.091 621.877 357.484 622.3 357.923C622.722 358.362 623.046 358.863 623.27 359.427C623.494 359.99 623.606 360.647 623.606 361.395C623.606 362.428 623.41 363.295 623.018 363.996C622.625 364.697 622.093 365.265 621.42 365.7C620.748 366.134 619.965 366.446 619.072 366.636C618.18 366.825 617.237 366.92 616.246 366.92C615.228 366.92 614.26 366.834 613.342 366.661C612.423 366.489 611.627 366.231 610.955 365.887ZM609.38 351.478H604.061V366.62H599.847V351.478H594.554V348.077H609.38V351.478Z" fill="#72FF4F" fill-opacity="0.5"/>
</g>
<g filter="url(#filter1_d_206_100)">
<ellipse cx="89.0728" cy="253.295" rx="38.3371" ry="38.2835" fill="#090E16"/>
</g>
<path d="M103.415 246.562C102.968 246.408 102.505 246.263 102.028 246.125C102.107 245.806 102.179 245.491 102.243 245.181C103.293 240.091 102.606 235.991 100.262 234.641C98.0139 233.346 94.3377 234.696 90.6249 237.923C90.2679 238.233 89.9098 238.561 89.552 238.906C89.3135 238.678 89.0754 238.458 88.838 238.247C84.9468 234.797 81.0466 233.343 78.7046 234.697C76.4589 235.995 75.7938 239.85 76.739 244.673C76.8303 245.139 76.937 245.615 77.0576 246.099C76.5056 246.255 75.9727 246.422 75.4628 246.6C70.9009 248.188 67.9874 250.677 67.9874 253.259C67.9874 255.926 71.115 258.6 75.8666 260.222C76.2416 260.35 76.6307 260.471 77.0317 260.586C76.9015 261.109 76.7883 261.622 76.6933 262.122C75.7921 266.862 76.4959 270.625 78.7356 271.916C81.049 273.248 84.9317 271.878 88.7123 268.578C89.0112 268.317 89.311 268.041 89.6115 267.751C90.0009 268.125 90.3897 268.48 90.7764 268.812C94.4384 271.959 98.0553 273.23 100.293 271.936C102.604 270.6 103.355 266.557 102.38 261.638C102.306 261.262 102.219 260.878 102.122 260.488C102.394 260.407 102.662 260.324 102.923 260.238C107.863 258.603 111.077 255.961 111.077 253.259C111.077 250.668 108.069 248.162 103.415 246.562ZM102.344 258.493C102.108 258.571 101.867 258.646 101.62 258.719C101.075 256.995 100.339 255.162 99.4383 253.268C100.298 251.419 101.005 249.609 101.535 247.897C101.976 248.024 102.404 248.158 102.816 248.3C106.804 249.671 109.236 251.697 109.236 253.259C109.236 254.922 106.609 257.082 102.344 258.493ZM100.574 261.995C101.005 264.17 101.067 266.137 100.781 267.674C100.525 269.055 100.009 269.976 99.3705 270.345C98.0126 271.13 95.1087 270.11 91.9768 267.419C91.6178 267.11 91.2562 266.781 90.8934 266.432C92.1075 265.106 93.321 263.564 94.5053 261.852C96.5883 261.668 98.5563 261.366 100.341 260.954C100.429 261.308 100.507 261.655 100.574 261.995ZM82.6775 270.21C81.3508 270.677 80.2941 270.691 79.6554 270.323C78.2962 269.54 77.7312 266.518 78.5019 262.465C78.5902 262.001 78.6953 261.524 78.8164 261.036C80.5815 261.426 82.5351 261.707 84.6231 261.876C85.8154 263.551 87.0639 265.091 88.322 266.439C88.0471 266.704 87.7733 266.956 87.501 267.194C85.8293 268.653 84.1539 269.689 82.6775 270.21ZM76.462 258.483C74.3609 257.766 72.6257 256.834 71.4364 255.817C70.3677 254.903 69.8281 253.995 69.8281 253.259C69.8281 251.692 72.1673 249.694 76.0687 248.335C76.5421 248.171 77.0377 248.015 77.5519 247.869C78.0911 249.621 78.7984 251.452 79.652 253.304C78.7874 255.183 78.07 257.043 77.5255 258.815C77.1589 258.71 76.8037 258.599 76.462 258.483ZM78.5455 244.32C77.7357 240.188 78.2735 237.07 79.6268 236.288C81.0684 235.454 84.256 236.643 87.6157 239.622C87.8305 239.812 88.0461 240.011 88.2623 240.218C87.0103 241.56 85.7733 243.088 84.5916 244.754C82.5651 244.941 80.6252 245.243 78.8417 245.646C78.7295 245.196 78.6302 244.753 78.5455 244.32ZM97.1322 248.904C96.7058 248.168 96.2681 247.45 95.8219 246.752C97.1967 246.925 98.5139 247.156 99.7509 247.438C99.3795 248.626 98.9166 249.869 98.3718 251.143C97.9809 250.402 97.5675 249.655 97.1322 248.904ZM89.5526 241.531C90.4016 242.45 91.2519 243.475 92.0882 244.588C91.2455 244.548 90.3923 244.528 89.532 244.528C88.6799 244.528 87.833 244.548 86.9955 244.587C87.8326 243.485 88.6903 242.46 89.5526 241.531ZM81.9244 248.916C81.4985 249.654 81.0928 250.397 80.708 251.141C80.172 249.872 79.7134 248.623 79.3388 247.418C80.5682 247.143 81.8792 246.919 83.2453 246.748C82.7928 247.453 82.3515 248.177 81.9244 248.916V248.916ZM83.2846 259.901C81.8732 259.744 80.5425 259.53 79.3134 259.263C79.694 258.036 80.1627 256.761 80.7101 255.465C81.0958 256.208 81.5032 256.952 81.9317 257.691H81.9318C82.3683 258.444 82.8205 259.182 83.2846 259.901ZM89.6035 265.116C88.7311 264.176 87.8608 263.137 87.0109 262.018C87.836 262.05 88.6771 262.067 89.532 262.067C90.4103 262.067 91.2785 262.047 92.1331 262.009C91.294 263.148 90.4468 264.189 89.6035 265.116ZM98.3893 255.398C98.9653 256.709 99.4508 257.978 99.8363 259.184C98.5869 259.468 97.238 259.697 95.8168 259.868C96.2641 259.16 96.7057 258.43 97.1396 257.678C97.5785 256.918 97.9953 256.157 98.3893 255.398ZM95.5451 256.76C94.8715 257.926 94.18 259.04 93.478 260.09C92.1993 260.182 90.8784 260.229 89.532 260.229C88.1911 260.229 86.8868 260.187 85.6308 260.106C84.9004 259.041 84.1939 257.924 83.5246 256.77H83.5248C82.8573 255.619 82.2429 254.458 81.6863 253.303C82.2428 252.146 82.8555 250.984 83.5192 249.834L83.519 249.835C84.1845 248.682 84.8848 247.571 85.6084 246.513C86.8898 246.416 88.2039 246.366 89.5319 246.366H89.532C90.866 246.366 92.1818 246.417 93.4629 246.514C94.1754 247.565 94.871 248.672 95.539 249.825C96.2146 250.99 96.8353 252.145 97.3966 253.277C96.837 254.429 96.2177 255.595 95.5451 256.76ZM99.3423 236.233C100.785 237.064 101.346 240.415 100.44 244.81C100.382 245.09 100.317 245.376 100.246 245.665C98.4585 245.253 96.5172 244.947 94.4848 244.756C93.3008 243.073 92.0739 241.542 90.8423 240.217C91.1734 239.899 91.5041 239.595 91.8333 239.309C95.0145 236.545 97.9877 235.453 99.3423 236.233ZM89.532 249.417C91.657 249.417 93.3797 251.137 93.3797 253.259C93.3797 255.381 91.657 257.101 89.532 257.101C87.407 257.101 85.6843 255.381 85.6843 253.259C85.6843 251.137 87.407 249.417 89.532 249.417Z" fill="#72FF4F" fill-opacity="0.5"/>
<g filter="url(#filter2_d_206_100)">
<ellipse cx="89.0728" cy="498.31" rx="38.3371" ry="38.2835" fill="#090E16"/>
</g>
<path d="M89.2661 476.95C88.6474 476.95 88.0288 477.097 87.4949 477.393L70.6966 486.802C69.6117 487.411 68.9353 488.563 68.9353 489.78V506.851C68.9353 508.084 69.6117 509.22 70.6966 509.828L75.1064 512.296C77.2422 513.315 78.0037 513.314 78.9699 513.314C82.1397 513.314 83.9525 511.456 83.9525 508.232V490.619C83.9525 490.356 83.7337 490.14 83.4625 490.14H81.3437C81.0555 490.14 80.8504 490.356 80.8504 490.619V508.216C80.8504 509.663 79.3097 511.077 76.818 509.877L72.2062 507.294C72.0367 507.212 71.9348 507.032 71.9348 506.851V489.796C71.9348 489.599 72.0367 489.432 72.2062 489.334L89.0045 479.928C89.1571 479.829 89.3614 479.829 89.5309 479.928L106.329 489.334C106.499 489.432 106.601 489.599 106.601 489.78V506.851C106.601 507.032 106.498 507.212 106.346 507.294L89.5309 516.719C89.3784 516.801 89.1571 516.801 89.0045 516.719L84.6808 514.236C84.5622 514.154 84.3956 514.138 84.2769 514.204C83.0734 514.862 82.8531 514.943 81.7343 515.322C81.4631 515.404 81.0391 515.568 81.8866 516.028L87.4949 519.253C88.0373 519.55 88.6492 519.713 89.2595 519.713C89.8866 519.713 90.4949 519.55 91.0373 519.253L107.855 509.828C108.94 509.22 109.617 508.084 109.617 506.851V489.796C109.617 488.563 108.94 487.427 107.855 486.818L91.0373 477.393C90.5033 477.097 89.8848 476.95 89.2661 476.95ZM93.7851 490.118C88.9881 490.118 86.1243 492.09 86.1243 495.379C86.1243 498.948 88.9693 499.934 93.5799 500.378C99.0888 500.904 99.5126 501.696 99.5126 502.748C99.5126 504.558 98.0065 505.331 94.4638 505.331C90.0058 505.331 89.022 504.244 88.7 502.106C88.6661 501.876 88.4638 501.711 88.2265 501.711H86.0382C85.767 501.711 85.5648 501.927 85.5648 502.173C85.5648 504.92 87.1073 508.19 94.4638 508.19C99.7863 508.19 102.836 506.153 102.836 502.601C102.836 499.081 100.378 498.142 95.2253 497.467C89.9875 496.809 89.4614 496.464 89.4614 495.28C89.4614 494.293 89.9204 492.996 93.7851 492.996C97.2261 492.996 98.5137 493.717 99.0392 495.97C99.09 496.184 99.2753 496.349 99.5126 496.349H101.701C101.837 496.349 101.953 496.284 102.055 496.186C102.14 496.103 102.191 495.971 102.174 495.823C101.835 491.941 99.1754 490.118 93.7851 490.118Z" fill="#72FF4F" fill-opacity="0.5"/>
<g filter="url(#filter3_f_206_100)">
<ellipse cx="328.68" cy="323.163" rx="273.152" ry="272.77" fill="#72FF4F" fill-opacity="0.2"/>
</g>
<g filter="url(#filter4_i_206_100)">
<path fill-rule="evenodd" clip-rule="evenodd" d="M278.376 434.182C317.725 454.307 361.85 452.071 396.422 434.18V478.268L396.813 478.258V504.144H278.376V434.182Z" fill="#8F5933"/>
<path fill-rule="evenodd" clip-rule="evenodd" d="M278.375 470.917C317.723 491.043 361.85 488.807 396.422 470.917V499.031L423.007 498.396L423.337 498.408C423.337 566.175 254.492 576.319 254.492 498.306L255.151 498.277L278.375 498.391V470.917Z" fill="#8F5933"/>
<path fill-rule="evenodd" clip-rule="evenodd" d="M209.251 192.406C303.154 135.036 423.288 155.437 463.876 193.268C475.611 220.362 476.44 246.497 472.988 274.55C480.915 269.092 490.342 270.341 497.77 275.424C500.779 298.702 508.84 344.751 472.719 346.749C460.284 495.293 232.432 513.782 201.632 347.235C165.832 346.05 175.485 299.511 177.722 277.162C186.311 270.893 196.119 274.048 202.207 276.853L209.251 192.406Z" fill="#8F5933"/>
<path fill-rule="evenodd" clip-rule="evenodd" d="M195.303 255.314C195.797 256.614 194.194 257.914 189.385 260.279C179.434 265.048 178.561 266.04 178.536 273.511V273.872C178.536 283.918 180.139 286.518 187.043 287.465C194.07 288.41 198.509 289.946 199.743 291.838C200.235 292.665 200.729 296.448 200.729 300.348C200.729 308.74 203.44 320.561 206.77 326.707C216.14 344.201 240.551 353.066 270.14 349.757C284.689 347.983 293.196 345.265 302.443 339.354C316.252 330.49 322.662 319.143 323.648 301.294C324.388 290.419 324.388 290.419 328.087 289.237C332.896 287.583 344.855 287.583 349.787 289.237C353.608 290.537 353.608 290.537 353.608 298.93C353.608 308.622 356.198 320.206 359.649 326.708C369.019 344.201 393.431 353.066 422.897 349.757C437.569 347.984 446.076 345.265 455.323 339.356C469.131 330.491 475.543 318.788 476.776 300.467C477.638 288.41 477.023 289.002 490.584 287.346C497.488 286.519 499.091 283.918 499.091 273.753C499.091 265.715 497.734 264.18 486.269 259.451L479.364 256.614L468.638 253.424L460.748 251.769C456.433 250.942 450.884 250.231 448.541 250.113C446.076 250.113 439.912 247.985 433.748 245.031C423.513 240.184 423.021 240.066 410.938 240.066C397.13 240.066 387.39 242.785 379.499 248.696C377.157 250.468 372.225 252.714 368.773 253.541C365.197 254.37 358.54 256.615 353.978 258.506C342.019 263.352 335.855 263.116 320.567 257.205C313.91 254.606 307.621 252.477 306.758 252.477C305.894 252.477 303.06 250.823 300.471 248.814C292.333 242.667 283.209 240.066 269.154 240.066C257.195 240.066 256.456 240.303 245.853 245.149C238.702 248.459 233.153 250.113 229.824 250.113C227.112 250.231 221.194 250.942 216.755 251.887L195.303 255.314ZM293.935 270.562C308.729 275.172 313.291 281.436 313.414 297.275C313.538 305.668 313.046 308.387 310.703 312.996C302.566 328.953 279.387 337.937 251.893 335.927C230.811 334.273 219.961 328.599 214.167 316.069C210.468 307.914 209.975 288.41 213.426 282.382C216.632 276.708 222.797 272.808 232.906 270.207C240.797 268.198 245.112 267.961 264.839 268.198C281.852 268.552 289.25 269.143 293.935 270.562ZM446.815 270.562C461.61 275.172 466.171 281.436 466.295 297.275C466.419 305.668 465.925 308.387 463.582 312.996C455.445 328.953 432.266 337.937 404.773 335.927C383.69 334.273 372.84 328.599 367.046 316.069C363.347 307.914 362.855 288.41 366.306 282.382C369.512 276.708 375.676 272.808 385.786 270.207C393.677 268.198 397.991 267.961 417.718 268.198C434.732 268.552 442.129 269.143 446.815 270.562Z" fill="#8F5933"/>
<path fill-rule="evenodd" clip-rule="evenodd" d="M305.771 76.8671L298.004 81.7138L294.058 78.0492C287.894 72.2577 284.935 73.3215 280.25 82.8959C277.414 88.8056 273.839 89.5153 267.675 85.6142C265.209 83.9597 262.126 82.541 260.894 82.541C258.181 82.541 255.592 86.5597 254.482 91.8788C253.62 96.2523 250.661 100.271 248.195 100.271C247.332 100.271 244.126 99.2072 241.044 97.9069C236.358 95.8975 234.879 95.7792 232.29 96.843C229.331 98.1434 229.084 98.8524 229.084 106.654C229.084 112.328 228.222 116.701 226.619 120.011C224.276 124.975 224.153 125.094 218.358 125.094C208.742 125.094 204.18 129.703 208.865 134.786C211.331 137.268 209.728 139.869 204.92 140.933C196.043 143.06 193.454 148.498 198.262 154.289C201.591 158.426 201.468 159.017 196.166 161.382C190.618 163.982 189.755 166.937 193.33 170.601C196.043 173.438 196.043 173.556 194.563 189.159C193.084 204.289 193.577 246.487 195.303 250.86C195.797 252.161 194.194 253.461 189.385 255.825C179.275 260.671 178.536 261.617 178.536 269.418C178.536 279.465 180.139 282.066 187.043 283.011C194.07 283.957 198.509 285.493 199.742 287.385C200.235 288.212 200.728 291.994 200.728 295.895C200.728 304.287 203.44 316.108 206.769 322.254C216.139 339.748 240.551 348.613 270.141 345.304C284.689 343.53 293.196 340.812 302.443 334.902C316.251 326.037 322.662 314.689 323.649 296.841C324.388 285.966 324.388 285.966 328.087 284.785C332.896 283.129 344.855 283.129 349.786 284.785C353.609 286.085 353.609 286.085 353.609 294.477C353.609 304.17 356.198 315.754 359.65 322.255C369.02 339.749 393.431 348.614 422.897 345.304C437.569 343.531 446.076 340.813 455.323 334.903C469.132 326.038 475.543 314.336 476.776 296.014C477.638 283.957 477.022 284.549 490.584 282.894C497.488 282.066 499.091 279.466 499.091 269.301C499.091 261.263 497.734 259.726 486.269 254.999L479.364 252.161V240.341C479.241 220.129 474.556 199.089 469.378 194.479C453.268 187.839 456.35 189.25 453.268 187.832C442.027 182.81 454.874 188.599 453.268 187.839C451.788 189.257 454.09 197.789 457.789 204.881C462.35 213.628 466.419 228.403 467.775 241.169L468.638 248.97L460.748 247.315C456.432 246.488 450.884 245.779 448.541 245.661C446.076 245.661 439.911 243.533 433.747 240.578C423.513 235.732 423.021 235.613 410.938 235.613C397.129 235.613 387.389 238.332 379.499 244.242C377.157 246.016 372.225 248.261 368.773 249.089C365.198 249.916 358.54 252.162 353.978 254.053C342.019 258.9 335.855 258.663 320.566 252.753C313.909 250.153 307.621 248.025 306.758 248.025C305.895 248.025 303.06 246.37 300.47 244.36C292.333 238.214 283.209 235.613 269.154 235.613C257.195 235.613 256.455 235.85 245.852 240.696C238.701 244.006 233.153 245.661 229.824 245.661C227.112 245.779 221.195 246.488 216.756 247.434C204.181 250.034 205.167 251.571 206.153 231.713C206.893 214.692 209.235 200.272 211.948 195.307C215.03 189.751 239.441 177.813 263.606 170.012C293.566 160.437 327.224 156.773 365.198 159.255C397.746 161.265 406.377 163.865 442.378 182.423C454.953 188.924 453.268 187.839 469.378 194.479C473.817 195.07 474.186 194.834 475.542 191.287C478.502 183.132 476.159 162.564 471.227 153.227C467.529 146.371 467.282 143.77 469.378 136.679C470.857 131.714 470.857 130.65 469.008 128.05C467.282 125.567 466.049 125.095 461.118 125.095C457.912 125.213 452.98 125.686 450.145 126.159C445.09 127.104 444.966 127.104 445.583 124.031C448.049 112.447 445.09 109.847 433.13 112.802C429.309 113.747 425.733 114.339 425.486 113.984C425.117 113.63 425.486 110.083 426.35 106.183C427.828 99.7999 427.706 98.7361 425.98 96.9627C424.13 95.3081 423.021 95.3081 415.869 96.6085C404.404 98.8544 400.088 97.7906 395.897 91.6436C391.582 85.6155 387.636 83.4879 383.568 85.0242C381.348 85.8514 379.006 85.4973 374.568 83.6062C369.882 81.7151 367.17 81.242 362.978 81.8327C358.663 82.5424 356.32 82.0693 352.252 80.0599C348.06 78.0506 345.717 77.6957 340.662 78.2864C335.238 78.8778 333.265 78.4047 326.977 75.4498C323.032 73.5588 318.347 72.0218 316.621 71.9036C314.895 71.9036 310.087 74.1495 305.772 76.8685L305.771 76.8671ZM293.935 266.108C308.73 270.719 313.292 276.983 313.415 292.822C313.538 301.214 313.045 303.933 310.703 308.543C302.565 324.5 279.387 333.484 251.893 331.474C230.811 329.82 219.961 324.146 214.167 311.616C210.468 303.46 209.974 283.957 213.427 277.929C216.632 272.255 222.797 268.354 232.906 265.754C240.797 263.744 245.112 263.508 264.839 263.744C281.852 264.099 289.25 264.69 293.935 266.108ZM446.814 266.108C461.61 270.719 466.171 276.983 466.295 292.822C466.418 301.214 465.925 303.933 463.582 308.543C455.445 324.5 432.267 333.484 404.773 331.474C383.69 329.82 372.841 324.146 367.046 311.616C363.347 303.46 362.854 283.957 366.306 277.929C369.512 272.255 375.676 268.354 385.786 265.754C393.677 263.744 397.992 263.508 417.718 263.744C434.732 264.099 442.129 264.69 446.814 266.108Z" fill="#1D1615"/>
<path fill-rule="evenodd" clip-rule="evenodd" d="M254.235 280.411C247.701 283.366 240.18 290.813 240.18 294.359C240.18 297.077 242.153 297.077 245.975 294.122C255.961 286.558 277.167 286.558 288.017 294.004C290.112 295.305 292.332 296.486 293.072 296.486C295.661 296.486 294.428 292.231 290.483 287.739C285.305 281.593 276.058 277.574 267.304 277.574C262.742 277.574 258.427 278.519 254.235 280.41V280.411Z" fill="#533824"/>
<path fill-rule="evenodd" clip-rule="evenodd" d="M254.281 309.048C247.747 306.093 240.226 298.647 240.226 295.1C240.226 292.382 242.198 292.382 246.021 295.337C256.007 302.902 277.213 302.902 288.063 295.455C290.158 294.155 292.378 292.974 293.118 292.974C295.707 292.974 294.474 297.229 290.529 301.721C285.35 307.867 276.104 311.886 267.35 311.886C262.788 311.886 258.473 310.94 254.281 309.049V309.048Z" fill="#533824"/>
<path fill-rule="evenodd" clip-rule="evenodd" d="M397.826 312.439C391.25 311.316 383.681 308.485 383.681 307.136C383.681 306.103 385.667 306.103 389.513 307.226C399.563 310.102 420.904 310.102 431.822 307.271C433.931 306.777 436.165 306.328 436.909 306.328C439.515 306.328 438.274 307.945 434.303 309.653C429.093 311.99 419.787 313.518 410.978 313.518C406.387 313.518 402.044 313.158 397.826 312.439Z" fill="#533824"/>
<path fill-rule="evenodd" clip-rule="evenodd" d="M310.086 336.911C311.443 341.994 315.388 346.013 322.292 349.205C327.84 351.805 330.676 352.396 338.813 352.396C346.95 352.396 349.786 351.805 355.334 349.205C362.238 346.013 366.183 341.995 367.539 336.911L368.156 334.311H338.813H309.469L310.086 336.911Z" fill="#825332"/>
<path fill-rule="evenodd" clip-rule="evenodd" d="M195.303 250.86C195.797 252.161 194.194 253.461 189.385 255.825C179.434 260.594 178.561 261.587 178.536 269.057V269.419C178.536 279.466 180.139 282.065 187.043 283.012C194.07 283.957 198.509 285.493 199.743 287.385C200.235 288.212 200.729 291.995 200.729 295.895C200.729 304.287 203.44 316.108 206.77 322.254C216.14 339.748 240.551 348.613 270.14 345.304C284.689 343.53 293.196 340.812 302.443 334.902C316.252 326.037 322.662 314.69 323.648 296.841C324.388 285.966 324.388 285.966 328.087 284.784C332.896 283.13 344.855 283.13 349.787 284.784C353.608 286.084 353.608 286.084 353.608 294.477C353.608 304.169 356.198 315.754 359.649 322.255C369.019 339.748 393.431 348.613 422.897 345.304C437.569 343.531 446.076 340.812 455.323 334.903C469.131 326.038 475.543 314.336 476.776 296.014C477.638 283.957 477.023 284.549 490.584 282.894C497.488 282.066 499.091 279.466 499.091 269.3C499.091 261.262 497.734 259.727 486.269 254.999L479.364 252.161L468.638 248.971L460.748 247.315C456.433 246.489 450.884 245.778 448.541 245.66C446.076 245.66 439.912 243.532 433.748 240.578C423.513 235.732 423.021 235.613 410.938 235.613C397.13 235.613 387.39 238.332 379.499 244.243C377.157 246.015 372.225 248.261 368.773 249.088C365.197 249.916 358.54 252.162 353.978 254.053C342.019 258.9 335.855 258.663 320.567 252.753C313.91 250.153 307.621 248.024 306.758 248.024C305.894 248.024 303.06 246.37 300.471 244.361C292.333 238.214 283.209 235.613 269.154 235.613C257.195 235.613 256.456 235.85 245.853 240.696C238.702 244.006 233.153 245.66 229.824 245.66C227.112 245.778 221.194 246.489 216.755 247.434L195.303 250.86ZM293.935 266.109C308.729 270.719 313.291 276.983 313.414 292.822C313.538 301.215 313.046 303.934 310.703 308.543C302.566 324.5 279.387 333.484 251.893 331.474C230.811 329.82 219.961 324.146 214.167 311.617C210.468 303.46 209.975 283.957 213.426 277.929C216.632 272.255 222.797 268.355 232.906 265.754C240.797 263.745 245.112 263.508 264.839 263.745C281.852 264.098 289.25 264.69 293.935 266.109ZM446.815 266.109C461.61 270.719 466.171 276.983 466.295 292.822C466.419 301.215 465.925 303.934 463.582 308.543C455.445 324.5 432.266 333.484 404.773 331.474C383.69 329.82 372.84 324.146 367.046 311.617C363.347 303.46 362.855 283.957 366.306 277.929C369.512 272.255 375.676 268.355 385.786 265.754C393.677 263.745 397.991 263.508 417.718 263.745C434.732 264.098 442.129 264.69 446.815 266.109Z" fill="#1C2533"/>
<path fill-rule="evenodd" clip-rule="evenodd" d="M294.824 385.424C296.82 395.22 306.489 405.252 318.461 409.972C327.209 413.513 343.325 414.22 352.535 411.506C366.349 407.376 378.32 396.282 380.469 385.424H294.824Z" fill="#3E291B"/>
<path d="M302.446 293.17C303.943 294.383 305.415 295.575 306.911 296.699C306.553 297.03 306.194 297.361 305.835 297.692C301.781 301.439 297.677 305.232 292.37 308.304C286.063 311.954 278.027 314.586 266.454 314.586C244.417 314.586 231.149 304.578 221.165 296.539C231.08 288.193 244.367 279.065 266.454 279.065C285.031 279.065 294.138 286.441 302.446 293.17Z" fill="#D9D1BD" stroke="black" stroke-width="3"/>
<path d="M374.454 293.17C372.956 294.383 371.485 295.575 369.988 296.699C370.347 297.03 370.705 297.361 371.064 297.692C375.118 301.439 379.223 305.232 384.53 308.304C390.836 311.954 398.872 314.586 410.445 314.586C432.483 314.586 445.75 304.578 455.735 296.539C445.82 288.193 432.533 279.065 410.445 279.065C391.869 279.065 382.762 286.441 374.454 293.17Z" fill="#D9D1BD" stroke="black" stroke-width="3"/>
<ellipse cx="263.778" cy="297.596" rx="5.35282" ry="4.62254" fill="black"/>
<ellipse cx="412.586" cy="297.596" rx="5.35282" ry="4.62254" fill="black"/>
<path d="M205.31 176.969C203.059 174.477 201.11 171.06 199.739 168.051C199.209 166.889 198.1 166.16 197.52 165.046C196.759 163.587 194.64 162.639 194.216 161.214C193.505 158.827 192.824 157.539 192.885 154.922C192.944 152.382 194.218 149.559 196.336 148.014C199.084 146.01 203.219 147.588 206.395 147.588C207.363 147.588 208.533 147.766 209.477 147.565C210.132 147.425 209.748 143.63 209.748 143.094C209.748 140.462 210.431 136.699 208.368 134.577C206.045 132.19 203.979 128.595 203.979 125.209C203.979 123.78 203.608 122.019 204.719 120.904C206.944 118.67 209.405 117.402 212.509 116.74C219.166 115.321 226.932 115.257 231.493 121.093C234.15 124.493 234.328 119.438 234.131 117.734C233.807 114.937 233.431 111.777 232.8 109.052C231.335 102.728 230.386 93.5849 236.227 89.0154C238.106 87.5449 240.362 85.4197 242.933 85.4197C244.675 85.4197 246.417 85.4197 248.159 85.4197C250.176 85.4197 251.775 85.5253 253.633 86.3659C257.676 88.1962 260.051 91.3415 263.1 94.2671C265.094 96.1804 268.326 87.9042 268.326 86.082C268.326 82.2291 269.389 79.8264 273.06 77.5185C277.874 74.4922 284.878 72.1158 290.712 72.2195C296.348 72.3196 300.902 76.8764 304.075 80.8777C305.02 82.0701 305.454 83.5013 306.442 84.6863C307.221 85.6205 307.244 82.4105 307.822 81.3508C309.088 79.0328 311.053 76.9543 313.345 75.5314C317.302 73.0742 322.333 73.1689 326.855 73.0948C336.655 72.934 346.467 73.0711 356.268 73.0711C365.028 73.0711 375.675 77.9067 378.136 86.7208C379.615 92.0193 381.106 97.9382 374.438 99.6607C367.142 101.546 359.575 94.5475 357.18 88.5896C356.238 86.2466 356.901 83.7864 357.18 81.3508C357.601 77.6801 358.132 72.7107 360.631 69.7592C362.103 68.0208 363.771 66.6839 366.154 66.6839C373.106 66.6839 380.059 66.6839 387.011 66.6839C392.324 66.6839 395.915 66.8928 400.62 69.2388C403.668 70.758 407.96 73.4649 408.46 76.998C409.58 84.9117 407.592 96.0676 400.152 100.749C396.938 102.771 391.12 105.811 387.036 105.811C385.107 105.811 382.804 102.831 381.686 101.695C379.588 99.5633 377.37 97.2329 375.843 94.6692C373.417 90.5961 380.202 90.569 382.919 90.1272C391.057 88.8038 398.958 88.2719 407.203 88.424C410.897 88.4922 414.577 88.802 418.273 88.8262C419.885 88.8367 421.919 88.5032 423.401 89.2993C427.253 91.3693 429.745 94.7056 432.326 97.9811C437.654 104.744 443.136 113.449 439.081 122.181C437.566 125.444 429.597 135.838 424.535 130.982C418.628 125.314 437.319 115.536 441.965 114.611C445.757 113.857 449.964 113.662 453.849 113.973C457.679 114.279 461.609 117.797 464.721 119.698C469.208 122.437 473.888 124.864 477.344 128.852C480.399 132.378 482.87 137.419 483.902 141.863C485.106 147.05 486.042 153.531 481.733 157.666C477.653 161.58 473.817 162.511 468.37 162.16C461.684 161.73 456.789 159.629 456.142 152.793C455.91 150.349 456.516 150.143 458.706 150.143C462.484 150.143 466.251 150.591 469.652 152.272C475.863 155.342 480.338 161.509 481.683 168.122C482.254 170.927 481.498 173.895 482.028 176.733C482.611 179.849 482.886 182.569 482.004 185.675C479.681 193.847 472.6 198.806 463.784 198.686C460.152 198.636 457.818 196.501 457.818 193.15C457.818 189.46 457.472 178.247 462.921 178.247C464.506 178.247 464.475 180.356 464.475 181.464C464.475 181.735 464.695 183.535 464.376 183.688C463.12 184.29 459.181 179.469 458.804 179.051C451.493 170.932 445.123 161.496 439.401 152.272C435.82 146.499 432.346 141.078 430.649 134.435C430.041 132.056 428.557 119.63 432.523 119.059C435.573 118.62 436.981 124.542 437.552 126.25C439.287 131.442 440.629 139.235 436.961 143.992C433.4 148.611 424.714 149.148 419.505 150.38C413.047 151.906 406.557 153.066 400.226 155.04C395.395 156.547 391.371 159.024 386.272 159.913C382.402 160.588 378.577 159.969 375.523 157.193C369.28 151.518 367.97 145.742 368.176 137.653C368.233 135.395 369.705 133.284 372.071 132.779C374.01 132.366 373.501 138.974 373.501 139.829C373.501 146.025 372.372 151.944 367.288 156.01C363.265 159.226 357.797 162.08 352.594 162.705C348.646 163.178 344.765 162.846 341.253 160.93C338.313 159.326 333.416 157.636 331.54 154.756C329.638 151.837 329.086 145.284 332.452 142.904C338.228 138.82 338.647 149.532 338.147 152.674C336.999 159.882 328.43 160.676 322.467 162.492C317.393 164.037 312.365 165.923 307.181 167.081C303.899 167.814 301.486 167.876 298.947 165.472C293.327 160.153 290.515 154.268 290.515 146.831C290.515 145.686 290.278 144.254 290.614 143.141C291.351 140.696 293.92 139.432 295.397 137.463C295.808 136.915 295.788 137.251 295.545 137.747C294.658 139.556 293.775 141.361 292.734 143.094C290.945 146.073 290.455 148.943 289.356 152.107C287.594 157.18 284.882 161.651 280.136 164.384C273.973 167.932 268.015 167.712 261.177 166.419C256.747 165.581 252.441 164.15 249.688 160.505C248.254 158.605 246.274 155.176 246.138 152.698C246.045 151.004 248.222 152.645 248.8 153.242C250.886 155.398 252.973 159.222 253.879 162.066C254.588 164.291 254.815 166.609 254.323 168.902C253.8 171.339 253.483 175.092 251.636 176.969C246.86 181.821 240.214 180.376 233.835 180.376C231.835 180.376 231.458 176.909 231.049 175.479C229.981 171.744 230.023 167.859 230.186 164.006C230.296 161.423 233.566 153.096 237.805 155.537C240.954 157.35 240.56 162.496 240.27 165.472C239.793 170.369 236.794 173.636 233.959 177.49C231.705 180.553 229.316 183.351 226.587 186.101C223.089 189.625 214.807 189.467 212.041 185.485C209.68 182.088 210.636 176.857 210.636 172.995C210.636 167.386 209.975 164.054 214.087 159.7C216.438 157.212 218.945 154.863 221.311 152.39C223.696 149.897 225.383 146.876 227.795 144.418C238.359 133.654 254.224 129.752 267.636 123.459C270.938 121.91 274.863 119.061 278.533 118.278C279.837 118 279.882 119.824 279.371 120.525C277.142 123.588 271.914 124.774 268.376 125.304C258.79 126.739 248.641 123.735 239.678 120.762C234.275 118.97 231.546 116.913 228.485 112.672C227.898 111.857 227.88 114.574 227.425 115.463C226.37 117.528 225.055 119.513 223.801 121.472C223.279 122.287 223.114 123.527 222.149 123.932C219.635 124.987 216.868 123.489 214.556 122.749C212.551 122.108 215.95 123.086 216.577 123.956C217.334 125.004 216.655 125.737 215.986 126.487C215.556 126.967 215.874 126.08 215.986 125.943C218.348 123.028 222.961 121.118 226.217 119.39C229.952 117.408 233.761 115.281 237.755 113.807C238.677 113.467 239.23 113.176 239.728 112.34C240.506 111.034 239.504 108.848 239.481 107.467C239.439 104.899 239.434 102.18 241.7 100.418C242.559 99.7495 243.894 98.0631 245.102 98.2177C247.952 98.5822 250.67 102.688 251.364 105.102C251.967 107.197 249.849 103.067 249.737 102.05C249.5 99.8848 248.848 97.3344 251.808 97.8628C256.351 98.6738 259.863 101.872 264.776 101.577C268.48 101.355 270.325 98.0002 270.521 94.8112C270.804 90.181 274.746 89.5215 278.287 87.3595C280.29 86.1361 281.126 84.5616 283.316 83.811C285.901 82.9251 289.179 82.2959 291.945 82.9594C296.812 84.127 298.112 92.0259 297.961 95.8284C297.93 96.5907 297.935 98.0683 296.95 98.3833C296.029 98.6778 295.947 92.422 295.939 92.0907C295.87 89.1261 296.396 81.2171 301.609 82.5336C304.569 83.2808 307.071 84.5024 310.288 84.568C317.235 84.7099 323.972 84.2721 330.849 83.3852C334.523 82.9115 341.683 81.3935 344.853 83.882C347.172 85.7026 341.418 88.1577 340.144 88.7552C338.813 89.3796 333.825 91.8784 332.181 90.8606C330.209 89.6402 340.354 83.7635 340.785 83.5981C343.869 82.4143 351.435 80.2125 354.271 83.2433C356.052 85.1471 355.266 89.2697 354.813 91.4757C354.323 93.8609 353.324 96.2423 352.348 98.4779C352.123 98.992 349.077 105.489 349.192 105.504C350.019 105.61 350.629 104.686 351.312 104.226C353.356 102.851 355.452 101.562 357.525 100.228C360.813 98.1133 363.802 95.7259 366.499 92.9423C370.131 89.1949 372.758 84.6296 376.657 81.0669C379.899 78.1035 385.639 75.7211 390.044 75.2238C393.361 74.8494 400.846 74.6066 401.557 78.7013C402.384 83.4591 397.834 85.0995 393.668 86.2713C386.354 88.3284 378.278 89.3915 370.888 87.2175C366.9 86.0445 362.267 85.8913 359.374 82.6992C358.299 81.5135 356.847 80.3011 355.972 79.0088C354.816 77.3031 354.261 75.5485 352.89 73.9701C351.9 72.83 350.46 71.8277 349.34 70.7528C345.796 67.3523 343.157 64.5549 337.555 64.5549C331.345 64.5549 324.165 63.4118 318.473 66.0689C315.183 67.6048 312.876 69.4675 310.041 71.6044C306.882 73.986 305.886 82.0649 305.653 85.4197C305.286 90.6948 304.716 95.8738 304.716 101.175C304.716 104.468 304.356 108.036 305.11 111.276C306.2 115.954 309.648 119.488 313.049 122.796C317.659 127.281 321.935 132.816 328.976 130.745C343.71 126.41 355.656 117.635 368.126 109.36C372.345 106.56 377.553 102.381 382.648 100.962C388.543 99.3196 395.339 99.8973 401.434 99.8973C404.231 99.8973 406.167 99.4355 408.806 98.8327C410.457 98.4554 413.197 98.1848 414.797 98.8564C419.775 100.946 424.256 107.285 423.968 112.53C423.768 116.168 420.369 114.499 419.974 111.844C419.368 107.774 420.456 103.713 425.176 102.925C431.16 101.927 431.815 112.558 433.312 115.983C434.66 119.069 436.055 124.681 439.623 126.203C441.23 126.888 443.782 125.625 445.121 125.02C447.52 123.937 449.249 123.743 451.827 123.743C454.115 123.743 455.101 124.123 455.525 126.7C455.995 129.555 455.831 133.103 454.613 135.76C454.043 137.003 450.338 144.324 448.597 144.324C448.143 144.324 448.768 143.465 448.893 143.046C449.416 141.298 449.964 139.532 450.668 137.842C450.993 137.063 451.498 135.958 452.148 135.334C453.747 133.799 457.622 133.978 459.593 133.962C462.392 133.94 465.522 133.541 468.222 134.388C473.367 136.002 477.344 137.756 477.344 143.519C477.344 145.929 477.835 147.645 475.027 148.44C472.123 149.262 468.749 148.451 466.546 146.405C463.028 143.139 468.821 135.911 469.972 141.438C470.026 141.692 470.708 144.766 469.504 144.324C466.272 143.136 464.608 136.812 463.71 134.175C462.285 129.986 461.452 125.733 461.368 121.33C461.353 120.548 461.086 119.386 461.837 118.846C462.858 118.111 462.815 117.667 463.365 116.717C464.323 115.062 465.98 117.917 466.422 118.799C466.931 119.813 466.809 121.863 466.052 120.1C465.709 119.299 465.806 118.414 465.806 117.568C465.806 114.31 469.792 112.005 472.463 113.429C473.56 114.013 474.907 115.849 475.47 116.93C476.404 118.721 476.013 120.946 476.013 122.891" stroke="#1D1615" stroke-width="15" stroke-linecap="round"/>
<path d="M422.76 161.64C422.76 164.698 422.488 169.473 426.088 171.008C429.545 172.482 433.813 176.045 437.848 173.894C440.013 172.74 442.391 170.957 444.036 169.115C445.614 167.35 447.163 169.195 448.696 169.73C450.592 170.392 452.315 171.096 454.44 171.41C456.11 171.656 455.009 175.804 454.046 176.543C453.036 177.318 454.506 179.528 452.739 180.281C451.194 180.94 451.347 180.547 451.802 179.548C452.57 177.863 452.617 175.788 452.838 173.989C453.171 171.271 453.024 168.797 451.827 166.324C451.013 164.642 449.67 163.314 448.844 161.64C447.439 158.795 451.659 163.029 452.147 163.722C453.779 166.037 454.711 170.03 454.711 172.806C454.711 175.264 453.824 177.132 453.824 179.524C453.824 181.039 452.62 181.28 451.605 182.316C451.104 182.827 454 181.688 453.799 182.363C453.635 182.913 451.151 185.134 451.802 185.391C452.396 185.625 454.609 183.663 455.328 183.356C457.521 182.421 456.93 178.966 456.93 177.182C456.93 172.802 454.649 167.951 451.95 164.621C447.788 159.486 440.383 158.371 434.84 155.253C430.063 152.566 423.54 156.704 418.766 157.358C416.619 157.653 414.092 158.921 412.652 160.457C412.039 161.11 412.932 161.722 411.887 162.279C411.368 162.556 409.837 162.758 409.447 162.208C406.988 158.739 410.714 152.624 412.208 149.528C413.275 147.316 413.621 144.879 414.944 142.762C415.936 141.177 417.237 139.768 418.322 138.22C420.803 134.682 423.467 130.32 426.729 127.386C428.839 125.488 430.724 123.6 433.164 122.04C434.591 121.126 436.034 120.421 437.207 119.295C438.73 117.834 439.62 117.372 437.059 116.409C435.205 115.712 432.233 112.993 431.413 111.158C430.502 109.118 429.214 106.605 427.641 105.007C426.944 104.299 426.077 103.323 425.669 102.429C424.639 100.169 422.76 97.6741 422.76 95.2134C422.76 91.8506 425.146 91.5255 428.085 90.1982C428.865 89.8462 424.719 88.8262 426.754 88.8262C428.725 88.8262 430.057 89.3219 431.191 90.9552" stroke="#1D1615" stroke-width="15" stroke-linecap="round"/>
<path d="M432.079 109.265C432.079 104.895 438.745 104.581 441.941 104.581C443.527 104.581 445.14 104.497 446.724 104.581C448.648 104.684 451.1 108.296 451.827 109.691C453.227 112.378 455.155 114.479 455.155 117.545C455.155 118.747 455.402 120.229 455.131 121.401C454.607 123.66 453.305 123.317 451.161 123.317" stroke="#1D1615" stroke-width="15" stroke-linecap="round"/>
<path d="M380.157 67.5356C379.939 66.6978 378.129 66.3056 377.914 65.1699C377.738 64.2434 376.02 62.8516 375.054 62.8516C372.509 62.8516 374.662 62 376.139 62C377.7 62 379.262 62 380.823 62C383.116 62 385.409 62 387.702 62C390.999 62 392.878 66.0204 394.358 68.3872" stroke="#1D1615" stroke-width="15" stroke-linecap="round"/>
<path d="M407.228 93.0843C407.426 90.9909 410.641 88.6842 412.109 87.3122C413.442 86.0669 415.043 86.2713 416.744 86.2713C420.409 86.2713 424.075 86.2713 427.74 86.2713C432.1 86.2713 435.704 90.0747 438.292 93.1789C440.009 95.2387 441.052 98.0988 442.828 99.9919C445.236 102.559 445.767 105.122 447.069 108.319C449.223 113.611 447.034 119.141 440.955 120.857C439.06 121.391 437.932 122.042 435.876 121.093C433.627 120.056 431.266 119.209 431.191 116.504C431.116 113.75 430.517 109.927 431.389 107.325C431.928 105.714 433.932 104.752 435.185 103.73C436.791 102.42 440.065 101.693 442.089 101.175C445.594 100.278 448.633 99.328 452.246 98.8328C456.411 98.2619 462.805 97.7273 466.521 99.7081C472.872 103.093 474.823 108.451 476.013 115.014C476.857 119.672 477.937 124.41 475.347 128.829C471.696 135.057 459.719 139.032 458.755 128.166C458.144 121.278 454.537 111.79 461.812 107.136" stroke="#1D1615" stroke-width="15" stroke-linecap="round"/>
<path d="M208.417 179.524C207.013 179.692 205.754 182.701 205.754 183.782C205.754 184.732 206.001 186.04 205.73 186.952C205.388 188.099 204.527 188.209 203.979 189.129C202.89 190.957 200.192 192.872 199.517 189.957C199.231 188.723 199.032 187.666 199.098 186.337C199.218 183.911 199.499 183.802 201.316 182.931" stroke="#1D1615" stroke-width="15" stroke-linecap="round"/>
<g filter="url(#filter5_d_206_100)">
<path fill-rule="evenodd" clip-rule="evenodd" d="M254.678 496.193C218.309 499.728 184.691 513.347 157.197 535.891C133.538 555.209 126.938 570.562 109.617 592.427C144.908 628.96 192.365 659.915 244.117 677.011C278.637 688.344 302.186 692 339.173 692C376.161 692 399.709 688.344 434.231 677.011C486.439 660.352 530.418 633.051 570.061 593.865C542.909 558.897 531.733 535.977 487.984 514.443C469.613 505.304 448.038 498.724 431.517 497.017L423.292 496.193C340.859 552.319 423.292 496.193 340.859 552.319C254.103 496.286 340.859 552.319 254.678 496.193Z" fill="white"/>
<path d="M296.381 524.669C296.588 524.81 296.717 524.9 296.796 524.956C296.799 524.959 296.801 524.962 296.803 524.964C296.899 525.072 297.019 525.154 297.031 525.162C297.128 525.232 297.309 525.354 297.639 525.571C298.311 526.013 299.663 526.892 302.369 528.643C307.782 532.147 318.627 539.151 340.316 553.159L340.316 553.159C340.654 553.377 341.089 553.372 341.421 553.146L341.902 552.818L342.38 552.493L342.853 552.171L343.323 551.851L343.789 551.534L344.252 551.219L344.711 550.906L345.166 550.596L345.617 550.289L346.065 549.984L346.509 549.682L346.95 549.382L347.387 549.084L347.82 548.789L348.25 548.496L348.676 548.206L349.099 547.918L349.518 547.633L349.934 547.35L350.346 547.069L350.755 546.791L351.16 546.515L351.562 546.241L351.961 545.97L352.356 545.701L352.747 545.435L353.135 545.17L353.52 544.908L353.902 544.649L354.28 544.391L354.655 544.136L355.026 543.883L355.394 543.632L355.759 543.384L356.121 543.138L356.479 542.894L356.834 542.652L357.186 542.412L357.535 542.175L357.88 541.94L358.222 541.707L358.561 541.476L358.897 541.247L359.23 541.021L359.56 540.796L359.886 540.574L360.21 540.353L360.53 540.135L360.848 539.919L361.162 539.705L361.473 539.493L361.781 539.284L362.087 539.076L362.389 538.87L362.688 538.666L362.984 538.464L363.278 538.265L363.568 538.067L363.856 537.871L364.14 537.678L364.422 537.486L364.701 537.296L364.977 537.108L365.25 536.922L365.52 536.738L365.787 536.556L366.052 536.376L366.314 536.197L366.573 536.021L366.829 535.846L367.083 535.674L367.334 535.503L367.582 535.334L367.828 535.167L368.07 535.002L368.31 534.838L368.548 534.676L368.783 534.516L369.015 534.358L369.245 534.202L369.472 534.048L369.696 533.895L369.918 533.744L370.137 533.594L370.354 533.447L370.568 533.301L370.78 533.157L370.989 533.014L371.196 532.873L371.4 532.734L371.602 532.597L371.802 532.461L371.999 532.327L372.193 532.194L372.385 532.064L372.575 531.934L372.763 531.807L372.948 531.681L373.131 531.556L373.311 531.433L373.49 531.312L373.665 531.192L373.839 531.074L374.011 530.957L374.18 530.842L374.347 530.728L374.511 530.616L374.674 530.505L374.834 530.396L374.992 530.289L375.148 530.182L375.302 530.078L375.454 529.974L375.604 529.872L375.751 529.772L375.897 529.673L376.04 529.575L376.182 529.479L376.321 529.384L376.458 529.291L376.594 529.198L376.727 529.108L376.858 529.018L376.988 528.93L377.115 528.843L377.241 528.758L377.364 528.674L377.486 528.591L377.606 528.509L377.724 528.429L377.84 528.35L377.954 528.272L378.066 528.196L378.177 528.12L378.286 528.046L378.393 527.973L378.498 527.902L378.602 527.831L378.703 527.762L378.803 527.694L378.902 527.627L378.998 527.561L379.093 527.496L379.187 527.433L379.278 527.371L379.368 527.309L379.457 527.249L379.543 527.19L379.628 527.132L379.712 527.075L379.794 527.019L379.875 526.965L379.953 526.911L380.031 526.858L380.107 526.806L380.181 526.756L380.254 526.706L380.326 526.657L380.396 526.61L380.464 526.563L380.532 526.517L380.598 526.472L380.662 526.428L380.725 526.385L380.787 526.343L380.847 526.302L380.906 526.262L380.964 526.223L381.02 526.184L381.075 526.147L381.129 526.11L381.182 526.074L381.233 526.039L381.283 526.005L381.332 525.972L381.38 525.939L381.427 525.908L381.472 525.877L381.516 525.847L381.56 525.817L381.602 525.789L381.642 525.761L381.682 525.734L381.721 525.707L381.759 525.682L381.795 525.657L381.831 525.632L381.866 525.609L381.899 525.586L381.932 525.564L381.963 525.542L381.994 525.521L382.024 525.501L382.053 525.482L382.08 525.463L382.107 525.444L382.133 525.427L382.159 525.409L382.183 525.393L382.207 525.377L382.229 525.361L382.251 525.346L382.272 525.332L382.293 525.318L382.312 525.305L382.331 525.292L382.349 525.28L382.366 525.268L382.383 525.257L382.399 525.246L382.414 525.235L382.429 525.225L382.443 525.216L382.456 525.207L382.469 525.198L382.481 525.19L382.492 525.182L382.503 525.175L382.514 525.168L382.523 525.161L382.533 525.155L382.541 525.149L382.55 525.143L382.558 525.138L382.565 525.133L382.572 525.128L382.578 525.124L382.584 525.12L382.59 525.116L382.595 525.112L382.6 525.109L382.604 525.106L382.608 525.103L382.612 525.101L382.615 525.098L382.618 525.096L382.621 525.094L382.624 525.093L382.626 525.091L382.628 525.09L382.63 525.089L382.631 525.088L382.633 525.087L382.634 525.086L382.635 525.085L382.636 525.085L382.636 525.084L382.637 525.084L382.637 525.084L382.637 525.083L382.638 525.083L382.638 525.083L382.075 524.256L382.638 525.083L382.638 525.083L382.639 525.083L382.639 525.082L382.639 525.082L382.64 525.082L382.64 525.081L382.641 525.081L382.642 525.08L382.643 525.079L382.645 525.078L382.646 525.077L382.648 525.076L382.65 525.075L382.652 525.073L382.655 525.072L382.658 525.07L382.661 525.067L382.664 525.065L382.668 525.063L382.672 525.06L382.676 525.057L382.681 525.054L382.686 525.05L382.692 525.046L382.698 525.042L382.704 525.038L382.711 525.033L382.719 525.028L382.726 525.023L382.735 525.017L382.743 525.011L382.753 525.005L382.762 524.998L382.773 524.991L382.784 524.984L382.795 524.976L382.807 524.968L382.82 524.959L382.833 524.95L382.847 524.94L382.862 524.931L382.877 524.92L382.893 524.909L382.91 524.898L382.927 524.886L382.945 524.874L382.964 524.861L382.983 524.848L383.004 524.834L383.025 524.82L383.047 524.805L383.069 524.789L383.093 524.773L383.117 524.757L383.143 524.739L383.169 524.722L383.196 524.703L383.224 524.684L383.252 524.665L383.282 524.644L383.313 524.624L383.344 524.602L383.377 524.58L383.41 524.557L383.445 524.533L383.481 524.509L383.517 524.484L383.555 524.459L383.594 524.432L383.634 524.405L383.674 524.377L383.716 524.349L383.76 524.319L383.804 524.289L383.849 524.258L383.896 524.227L383.944 524.194L383.993 524.161L384.043 524.127L384.094 524.092L384.147 524.056L384.201 524.019L384.256 523.982L384.312 523.943L384.37 523.904L384.429 523.864L384.489 523.822L384.551 523.78L384.614 523.738L384.679 523.694L384.744 523.649L384.812 523.603L384.88 523.556L384.95 523.509L385.022 523.46L385.095 523.41L385.169 523.36L385.245 523.308L385.323 523.255L385.401 523.201L385.482 523.147L385.564 523.091L385.648 523.034L385.733 522.976L385.82 522.917L385.908 522.857L385.998 522.795L386.09 522.733L386.183 522.669L386.278 522.605L386.374 522.539L386.473 522.472L386.573 522.404L386.674 522.335L386.778 522.264L386.883 522.193L386.99 522.12L387.099 522.046L387.21 521.97L387.322 521.894L387.436 521.816L387.552 521.737L387.67 521.657L387.79 521.575L387.912 521.492L388.035 521.408L388.161 521.323L388.288 521.236L388.418 521.148L388.549 521.058L388.682 520.968L388.818 520.875L388.955 520.782L389.094 520.687L389.236 520.591L389.379 520.493L389.525 520.394L389.672 520.294L389.822 520.192L389.974 520.088L390.128 519.984L390.284 519.877L390.442 519.77L390.602 519.66L390.765 519.55L390.929 519.438L391.096 519.324L391.266 519.209L391.437 519.092L391.611 518.974L391.786 518.854L391.965 518.733L392.145 518.61L392.328 518.485L392.513 518.359L392.701 518.232L392.891 518.102L393.083 517.972L393.277 517.839L393.474 517.705L393.674 517.569L393.876 517.432L394.08 517.293L394.287 517.152L394.496 517.009L394.708 516.865L394.922 516.719L395.139 516.572L395.358 516.422L395.58 516.271L395.804 516.118L396.031 515.964L396.261 515.808L396.493 515.649L396.728 515.49L396.966 515.328L397.206 515.164L397.448 514.999L397.694 514.832L397.942 514.663L398.193 514.492L398.447 514.319L398.703 514.145L398.962 513.969L399.224 513.79L399.489 513.61L399.756 513.428L400.026 513.244L400.299 513.058L400.575 512.87L400.854 512.68L401.136 512.488L401.42 512.295L401.708 512.099L401.998 511.901L402.292 511.701L402.588 511.5L402.887 511.296L403.189 511.09L403.495 510.882L403.803 510.673L404.114 510.461L404.428 510.247L404.746 510.031L405.066 509.812L405.39 509.592L405.716 509.37L406.046 509.145L406.379 508.919L406.715 508.69L407.054 508.459L407.396 508.226L407.741 507.991L408.09 507.754L408.442 507.514L408.797 507.272L409.155 507.028L409.517 506.782L409.882 506.534L410.25 506.283L410.621 506.03L410.996 505.775L411.374 505.517L411.756 505.258L412.141 504.996L412.529 504.731L412.92 504.465L413.315 504.196L413.714 503.925L414.116 503.651L414.521 503.375L414.93 503.097L415.342 502.816L415.758 502.533L416.177 502.248L416.6 501.96L417.026 501.67L417.456 501.377L417.889 501.082L418.326 500.784L418.767 500.484L419.211 500.182L419.659 499.877L420.11 499.57L420.565 499.26L421.024 498.947L421.487 498.632L421.953 498.315L422.423 497.995L422.896 497.673L423.374 497.348L423.554 497.225L431.414 498.012C431.415 498.012 431.415 498.012 431.416 498.012C447.796 499.704 469.255 506.243 487.539 515.338L487.542 515.34C523.483 533.031 537.246 551.586 556.306 577.283C560.155 582.472 564.22 587.953 568.727 593.777C529.354 632.525 485.7 659.538 433.927 676.059L433.919 676.061C399.501 687.36 376.059 691 339.173 691C302.289 691 278.846 687.36 244.43 676.062C193.136 659.116 146.064 628.508 110.944 592.36C115.956 585.991 120.059 580.198 123.947 574.708C133.283 561.528 141.377 550.099 157.829 536.666L157.831 536.665C185.078 514.323 218.38 500.792 254.426 497.223C275.775 511.127 286.437 518.099 291.751 521.597C294.423 523.355 295.738 524.232 296.381 524.669ZM297.72 525.277L297.738 525.274C297.714 525.278 297.702 525.28 297.712 525.278L297.72 525.277Z" stroke="#7C7C7C" stroke-width="2" stroke-linejoin="round"/>
</g>
<path fill-rule="evenodd" clip-rule="evenodd" d="M270.894 448.595L268.217 446.991C266.644 446.54 274.043 443.376 276.78 442.181C284.827 438.67 295.322 439.387 308.441 444.415C313.505 445.777 320.83 449.425 326.72 451.278C339.695 455.466 346.323 453.062 358.03 448.486L368.263 444.415C381.382 439.387 391.877 438.67 399.924 442.181C402.621 443.344 405.286 444.854 407.315 446.467L407.926 447.526C384.443 463.871 311.598 472.807 270.894 448.595Z" fill="#1D1615"/>
<path d="M436.473 610.619L442.584 579.923" stroke="#72FF4F" stroke-opacity="0.5" stroke-width="3" stroke-linecap="round"/>
<path d="M449.699 578.511L469.432 594.86C469.926 595.269 469.912 596.031 469.404 596.422L449.699 611.581" stroke="#72FF4F" stroke-opacity="0.5" stroke-width="3" stroke-linecap="round"/>
<path d="M433.141 582.645L418.393 594.702C417.893 595.112 417.906 595.882 418.422 596.273L433.141 607.448" stroke="#72FF4F" stroke-opacity="0.5" stroke-width="3" stroke-linecap="round"/>
<path d="M429.002 578.511L409.268 594.86C408.774 595.269 408.788 596.031 409.297 596.422L429.002 611.581" stroke="#72FF4F" stroke-opacity="0.5" stroke-width="3" stroke-linecap="round"/>
<path d="M445.56 582.645L460.307 594.702C460.808 595.112 460.794 595.882 460.279 596.273L445.56 607.448" stroke="#72FF4F" stroke-opacity="0.5" stroke-width="3" stroke-linecap="round"/>
</g>
<defs>
<filter id="filter0_d_206_100" x="519.245" y="266.635" width="176.674" height="176.567" filterUnits="userSpaceOnUse" color-interpolation-filters="sRGB">
<feFlood flood-opacity="0" result="BackgroundImageFix"/>
<feColorMatrix in="SourceAlpha" type="matrix" values="0 0 0 0 0 0 0 0 0 0 0 0 0 0 0 0 0 0 127 0" result="hardAlpha"/>
<feOffset dy="4"/>
<feGaussianBlur stdDeviation="25"/>
<feComposite in2="hardAlpha" operator="out"/>
<feColorMatrix type="matrix" values="0 0 0 0 0 0 0 0 0 0 0 0 0 0 0 0 0 0 0.5 0"/>
<feBlend mode="normal" in2="BackgroundImageFix" result="effect1_dropShadow_206_100"/>
<feBlend mode="normal" in="SourceGraphic" in2="effect1_dropShadow_206_100" result="shape"/>
</filter>
<filter id="filter1_d_206_100" x="0.735718" y="169.012" width="176.674" height="176.567" filterUnits="userSpaceOnUse" color-interpolation-filters="sRGB">
<feFlood flood-opacity="0" result="BackgroundImageFix"/>
<feColorMatrix in="SourceAlpha" type="matrix" values="0 0 0 0 0 0 0 0 0 0 0 0 0 0 0 0 0 0 127 0" result="hardAlpha"/>
<feOffset dy="4"/>
<feGaussianBlur stdDeviation="25"/>
<feComposite in2="hardAlpha" operator="out"/>
<feColorMatrix type="matrix" values="0 0 0 0 0 0 0 0 0 0 0 0 0 0 0 0 0 0 0.5 0"/>
<feBlend mode="normal" in2="BackgroundImageFix" result="effect1_dropShadow_206_100"/>
<feBlend mode="normal" in="SourceGraphic" in2="effect1_dropShadow_206_100" result="shape"/>
</filter>
<filter id="filter2_d_206_100" x="0.735718" y="414.026" width="176.674" height="176.567" filterUnits="userSpaceOnUse" color-interpolation-filters="sRGB">
<feFlood flood-opacity="0" result="BackgroundImageFix"/>
<feColorMatrix in="SourceAlpha" type="matrix" values="0 0 0 0 0 0 0 0 0 0 0 0 0 0 0 0 0 0 127 0" result="hardAlpha"/>
<feOffset dy="4"/>
<feGaussianBlur stdDeviation="25"/>
<feComposite in2="hardAlpha" operator="out"/>
<feColorMatrix type="matrix" values="0 0 0 0 0 0 0 0 0 0 0 0 0 0 0 0 0 0 0.5 0"/>
<feBlend mode="normal" in2="BackgroundImageFix" result="effect1_dropShadow_206_100"/>
<feBlend mode="normal" in="SourceGraphic" in2="effect1_dropShadow_206_100" result="shape"/>
</filter>
<filter id="filter3_f_206_100" x="5.52783" y="0.392731" width="646.304" height="645.54" filterUnits="userSpaceOnUse" color-interpolation-filters="sRGB">
<feFlood flood-opacity="0" result="BackgroundImageFix"/>
<feBlend mode="normal" in="SourceGraphic" in2="BackgroundImageFix" result="shape"/>
<feGaussianBlur stdDeviation="25" result="effect1_foregroundBlur_206_100"/>
</filter>
<filter id="filter4_i_206_100" x="109.617" y="54.5" width="460.445" height="641.5" filterUnits="userSpaceOnUse" color-interpolation-filters="sRGB">
<feFlood flood-opacity="0" result="BackgroundImageFix"/>
<feBlend mode="normal" in="SourceGraphic" in2="BackgroundImageFix" result="shape"/>
<feColorMatrix in="SourceAlpha" type="matrix" values="0 0 0 0 0 0 0 0 0 0 0 0 0 0 0 0 0 0 127 0" result="hardAlpha"/>
<feOffset dy="4"/>
<feGaussianBlur stdDeviation="2"/>
<feComposite in2="hardAlpha" operator="arithmetic" k2="-1" k3="1"/>
<feColorMatrix type="matrix" values="0 0 0 0 0 0 0 0 0 0 0 0 0 0 0 0 0 0 0.25 0"/>
<feBlend mode="normal" in2="shape" result="effect1_innerShadow_206_100"/>
</filter>
<filter id="filter5_d_206_100" x="105.617" y="496.193" width="468.445" height="203.807" filterUnits="userSpaceOnUse" color-interpolation-filters="sRGB">
<feFlood flood-opacity="0" result="BackgroundImageFix"/>
<feColorMatrix in="SourceAlpha" type="matrix" values="0 0 0 0 0 0 0 0 0 0 0 0 0 0 0 0 0 0 127 0" result="hardAlpha"/>
<feOffset dy="4"/>
<feGaussianBlur stdDeviation="2"/>
<feComposite in2="hardAlpha" operator="out"/>
<feColorMatrix type="matrix" values="0 0 0 0 0 0 0 0 0 0 0 0 0 0 0 0 0 0 0.25 0"/>
<feBlend mode="normal" in2="BackgroundImageFix" result="effect1_dropShadow_206_100"/>
<feBlend mode="normal" in="SourceGraphic" in2="effect1_dropShadow_206_100" result="shape"/>
</filter>
<clipPath id="clip0_206_100">
<path d="M588.414 339.776C588.414 335.358 591.996 331.776 596.414 331.776H618.751C623.169 331.776 626.751 335.358 626.751 339.776V362.06C626.751 366.478 623.169 370.06 618.751 370.06H596.414C591.996 370.06 588.414 366.478 588.414 362.06V339.776Z" fill="white"/>
</clipPath>
</defs>
</svg>
