<svg width="6351" height="6392" viewBox="0 0 6351 6392" fill="none" xmlns="http://www.w3.org/2000/svg">
<path d="M5500.01 2993.33C5500.01 1603.59 4371.1 476.985 2978.51 476.985C1585.92 476.985 457 1603.59 457 2993.33C457 4383.07 1585.92 5509.68 2978.51 5509.68C4371.1 5509.68 5500.01 4383.07 5500.01 2993.33Z" fill="#72FF4F" fill-opacity="0.2"/>
<g filter="url(#filter0_d_303_98)">
<ellipse cx="5543.79" cy="3202.3" rx="350.209" ry="349.719" fill="#090E16"/>
</g>
<g clip-path="url(#clip0_303_98)">
<path fill-rule="evenodd" clip-rule="evenodd" d="M5691.54 3027.44H5396.05C5380.94 3027.44 5368.69 3039.67 5368.69 3054.76V3349.84C5368.69 3364.93 5380.94 3377.16 5396.05 3377.16H5691.54C5706.65 3377.16 5718.9 3364.93 5718.9 3349.84V3054.76C5718.9 3039.67 5706.65 3027.44 5691.54 3027.44ZM5574.6 3339.04V3301.31C5581.45 3307.05 5588.89 3311.35 5596.93 3314.22C5604.97 3317.09 5613.08 3318.52 5621.27 3318.52C5626.08 3318.52 5630.27 3318.09 5633.86 3317.23C5637.44 3316.36 5640.44 3315.16 5642.84 3313.63C5645.24 3312.1 5647.04 3310.29 5648.22 3308.21C5649.4 3306.12 5649.99 3303.86 5649.99 3301.43C5649.99 3298.13 5649.04 3295.18 5647.15 3292.58C5645.26 3289.99 5642.68 3287.59 5639.41 3285.39C5636.14 3283.19 5632.26 3281.07 5627.77 3279.02C5623.28 3276.98 5618.44 3274.9 5613.24 3272.77C5600 3267.27 5590.14 3260.55 5583.64 3252.61C5577.14 3244.67 5573.89 3235.08 5573.89 3223.84C5573.89 3215.04 5575.66 3207.47 5579.2 3201.14C5582.75 3194.82 5587.58 3189.61 5593.68 3185.52C5599.79 3181.43 5606.86 3178.43 5614.89 3176.5C5622.93 3174.58 5631.44 3173.61 5640.42 3173.61C5649.24 3173.61 5657.06 3174.14 5663.87 3175.2C5670.69 3176.27 5676.97 3177.9 5682.72 3180.1V3215.35C5679.89 3213.39 5676.79 3211.66 5673.45 3210.17C5670.1 3208.67 5666.65 3207.43 5663.11 3206.45C5659.56 3205.47 5656.04 3204.74 5652.53 3204.27C5649.02 3203.8 5645.7 3203.56 5642.54 3203.56C5638.21 3203.56 5634.27 3203.97 5630.73 3204.8C5627.18 3205.63 5624.19 3206.78 5621.75 3208.28C5619.3 3209.77 5617.41 3211.56 5616.07 3213.64C5614.73 3215.73 5614.07 3218.06 5614.07 3220.66C5614.07 3223.49 5614.81 3226.02 5616.31 3228.26C5617.81 3230.5 5619.93 3232.63 5622.69 3234.63C5625.45 3236.64 5628.8 3238.6 5632.74 3240.53C5636.68 3242.45 5641.13 3244.44 5646.09 3246.48C5652.86 3249.31 5658.95 3252.32 5664.35 3255.5C5669.74 3258.68 5674.37 3262.28 5678.23 3266.29C5682.09 3270.3 5685.05 3274.88 5687.09 3280.03C5689.14 3285.17 5690.17 3291.17 5690.17 3298.01C5690.17 3307.44 5688.38 3315.36 5684.79 3321.77C5681.21 3328.17 5676.34 3333.36 5670.2 3337.33C5664.05 3341.3 5656.9 3344.15 5648.75 3345.88C5640.59 3347.61 5631.99 3348.47 5622.93 3348.47C5613.63 3348.47 5604.79 3347.69 5596.4 3346.11C5588.01 3344.54 5580.74 3342.18 5574.6 3339.04ZM5560.21 3207.41H5511.62V3345.74H5473.13V3207.41H5424.77V3176.34H5560.21V3207.41Z" fill="#72FF4F" fill-opacity="0.5"/>
</g>
<g filter="url(#filter1_d_303_98)">
<ellipse cx="807.209" cy="2310.51" rx="350.209" ry="349.719" fill="#090E16"/>
</g>
<path d="M938.226 2249.01C934.143 2247.6 929.911 2246.27 925.555 2245.02C926.271 2242.1 926.928 2239.22 927.512 2236.39C937.104 2189.89 930.833 2152.44 909.418 2140.11C888.883 2128.28 855.301 2140.61 821.385 2170.09C818.123 2172.92 814.853 2175.92 811.584 2179.07C809.405 2176.98 807.231 2174.97 805.061 2173.05C769.516 2141.53 733.887 2128.25 712.493 2140.62C691.979 2152.48 685.903 2187.69 694.537 2231.75C695.371 2236.01 696.346 2240.36 697.448 2244.78C692.405 2246.2 687.537 2247.73 682.879 2249.35C641.206 2263.86 614.592 2286.6 614.592 2310.18C614.592 2334.54 643.162 2358.98 686.568 2373.79C689.994 2374.96 693.548 2376.07 697.211 2377.12C696.022 2381.9 694.988 2386.58 694.12 2391.15C685.887 2434.45 692.316 2468.83 712.776 2480.61C733.91 2492.78 769.377 2480.27 803.914 2450.12C806.643 2447.74 809.383 2445.21 812.127 2442.57C815.684 2445.99 819.236 2449.22 822.769 2452.26C856.221 2481.01 889.261 2492.61 909.702 2480.8C930.814 2468.59 937.676 2431.66 928.768 2386.72C928.088 2383.29 927.296 2379.79 926.407 2376.22C928.898 2375.48 931.343 2374.72 933.727 2373.93C978.852 2359.01 1008.21 2334.87 1008.21 2310.18C1008.21 2286.51 980.738 2263.62 938.226 2249.01ZM928.439 2358C926.286 2358.71 924.078 2359.4 921.827 2360.06C916.846 2344.31 910.123 2327.57 901.895 2310.27C909.746 2293.38 916.21 2276.84 921.052 2261.2C925.078 2262.36 928.987 2263.59 932.752 2264.88C969.177 2277.4 991.396 2295.92 991.396 2310.18C991.396 2325.38 967.4 2345.1 928.439 2358ZM912.272 2389.99C916.211 2409.86 916.774 2427.82 914.165 2441.86C911.82 2454.48 907.106 2462.9 901.276 2466.27C888.872 2473.44 862.344 2464.12 833.735 2439.53C830.455 2436.71 827.152 2433.7 823.838 2430.52C834.929 2418.41 846.014 2404.32 856.832 2388.68C875.861 2387 893.838 2384.24 910.142 2380.48C910.944 2383.71 911.658 2386.88 912.272 2389.99ZM748.785 2465.03C736.666 2469.3 727.013 2469.42 721.178 2466.06C708.762 2458.91 703.601 2431.31 710.641 2394.28C711.448 2390.04 712.408 2385.68 713.514 2381.23C729.638 2384.79 747.484 2387.35 766.559 2388.9C777.45 2404.2 788.855 2418.27 800.348 2430.58C797.837 2433 795.336 2435.31 792.849 2437.48C777.577 2450.81 762.273 2460.27 748.785 2465.03ZM692.007 2357.9C672.813 2351.35 656.963 2342.84 646.098 2333.55C636.335 2325.2 631.406 2316.91 631.406 2310.18C631.406 2295.87 652.775 2277.61 688.414 2265.21C692.739 2263.7 697.266 2262.28 701.963 2260.95C706.889 2276.95 713.35 2293.68 721.147 2310.59C713.249 2327.76 706.696 2344.75 701.722 2360.94C698.373 2359.98 695.129 2358.97 692.007 2357.9ZM711.039 2228.53C703.642 2190.78 708.555 2162.3 720.918 2155.15C734.086 2147.54 763.205 2158.39 793.896 2185.61C795.858 2187.35 797.827 2189.17 799.802 2191.05C788.366 2203.31 777.065 2217.27 766.271 2232.49C747.758 2234.2 730.038 2236.95 713.745 2240.64C712.721 2236.52 711.814 2232.48 711.039 2228.53ZM880.829 2270.4C876.934 2263.68 872.936 2257.12 868.859 2250.74C881.418 2252.32 893.451 2254.43 904.751 2257C901.358 2267.86 897.13 2279.21 892.153 2290.85C888.582 2284.08 884.806 2277.26 880.829 2270.4ZM811.589 2203.05C819.345 2211.44 827.113 2220.81 834.752 2230.97C827.054 2230.61 819.26 2230.42 811.401 2230.42C803.617 2230.42 795.881 2230.61 788.23 2230.96C795.877 2220.89 803.712 2211.54 811.589 2203.05ZM741.906 2270.51C738.015 2277.25 734.309 2284.04 730.795 2290.84C725.898 2279.24 721.709 2267.84 718.287 2256.83C729.517 2254.32 741.493 2252.26 753.972 2250.71C749.839 2257.15 745.807 2263.76 741.906 2270.51V2270.51ZM754.332 2370.86C741.439 2369.42 729.283 2367.47 718.055 2365.03C721.531 2353.82 725.813 2342.18 730.813 2330.33C734.337 2337.13 738.058 2343.92 741.973 2350.67H741.973C745.961 2357.55 750.091 2364.29 754.332 2370.86ZM812.054 2418.5C804.085 2409.91 796.135 2400.41 788.371 2390.2C795.908 2390.49 803.592 2390.64 811.401 2390.64C819.424 2390.64 827.356 2390.46 835.162 2390.12C827.497 2400.52 819.758 2410.03 812.054 2418.5ZM892.313 2329.73C897.574 2341.7 902.009 2353.29 905.531 2364.3C894.118 2366.9 881.796 2369 868.813 2370.55C872.899 2364.09 876.933 2357.42 880.896 2350.55C884.906 2343.61 888.713 2336.66 892.313 2329.73ZM866.331 2342.16C860.178 2352.82 853.861 2362.99 847.448 2372.59C835.767 2373.42 823.7 2373.85 811.401 2373.85C799.152 2373.85 787.237 2373.47 775.764 2372.73C769.092 2363 762.638 2352.8 756.524 2342.26H756.525C750.428 2331.74 744.816 2321.13 739.73 2310.59C744.814 2300.02 750.412 2289.4 756.474 2278.9L756.473 2278.9C762.552 2268.37 768.949 2258.22 775.559 2248.56C787.265 2247.68 799.269 2247.21 811.401 2247.21H811.401C823.588 2247.21 835.607 2247.68 847.31 2248.57C853.819 2258.16 860.173 2268.28 866.275 2278.81C872.447 2289.46 878.117 2300 883.244 2310.35C878.132 2320.87 872.475 2331.52 866.331 2342.16ZM901.019 2154.65C914.2 2162.24 919.325 2192.86 911.044 2233C910.516 2235.56 909.921 2238.17 909.275 2240.81C892.944 2237.05 875.211 2234.25 856.645 2232.51C845.829 2217.13 834.621 2203.15 823.371 2191.04C826.396 2188.14 829.416 2185.37 832.424 2182.75C861.484 2157.5 888.644 2147.53 901.019 2154.65ZM811.401 2275.08C830.813 2275.08 846.55 2290.8 846.55 2310.18C846.55 2329.57 830.813 2345.28 811.401 2345.28C791.99 2345.28 776.253 2329.57 776.253 2310.18C776.253 2290.8 791.99 2275.08 811.401 2275.08Z" fill="#72FF4F" fill-opacity="0.5"/>
<g filter="url(#filter2_d_303_98)">
<ellipse cx="807.209" cy="4548.72" rx="350.209" ry="349.719" fill="#090E16"/>
</g>
<path d="M808.976 4353.6C803.324 4353.6 797.674 4354.95 792.796 4357.65L639.344 4443.6C629.434 4449.16 623.254 4459.68 623.254 4470.8V4626.74C623.254 4638.01 629.434 4648.38 639.344 4653.94L679.627 4676.48C699.137 4685.8 706.094 4685.78 714.921 4685.78C743.876 4685.78 760.436 4668.81 760.436 4639.36V4478.46C760.436 4476.06 758.438 4474.09 755.96 4474.09H736.605C733.972 4474.09 732.099 4476.06 732.099 4478.46V4639.21C732.099 4652.43 718.025 4665.35 695.263 4654.38L653.134 4630.79C651.586 4630.04 650.654 4628.39 650.654 4626.74V4470.95C650.654 4469.15 651.586 4467.63 653.134 4466.72L806.587 4380.8C807.98 4379.9 809.847 4379.9 811.395 4380.8L964.848 4466.72C966.396 4467.63 967.328 4469.15 967.328 4470.8V4626.74C967.328 4628.39 966.393 4630.04 964.999 4630.79L811.395 4716.89C810.002 4717.64 807.98 4717.64 806.587 4716.89L767.09 4694.2C766.006 4693.45 764.484 4693.31 763.4 4693.91C752.406 4699.92 750.393 4700.67 740.173 4704.12C737.696 4704.87 733.822 4706.37 741.565 4710.58L792.796 4740.04C797.751 4742.74 803.341 4744.24 808.915 4744.24C814.645 4744.24 820.201 4742.74 825.156 4740.04L978.79 4653.94C988.7 4648.38 994.879 4638.01 994.879 4626.74V4470.95C994.879 4459.68 988.7 4449.31 978.79 4443.75L825.156 4357.65C820.278 4354.95 814.628 4353.6 808.976 4353.6ZM850.257 4473.88C806.437 4473.88 780.275 4491.9 780.275 4521.95C780.275 4554.55 806.265 4563.55 848.382 4567.61C898.707 4572.42 902.578 4579.65 902.578 4589.27C902.578 4605.79 888.82 4612.86 856.457 4612.86C815.733 4612.86 806.746 4602.93 803.804 4583.4C803.495 4581.3 801.647 4579.79 799.48 4579.79H779.489C777.012 4579.79 775.164 4581.76 775.164 4584.01C775.164 4609.11 789.255 4638.98 856.457 4638.98C905.078 4638.98 932.941 4620.37 932.941 4587.92C932.941 4555.77 910.486 4547.18 863.413 4541.02C815.566 4535.02 810.76 4531.86 810.76 4521.04C810.76 4512.03 814.953 4500.18 850.257 4500.18C881.691 4500.18 893.453 4506.77 898.253 4527.35C898.717 4529.3 900.41 4530.81 902.578 4530.81H922.568C923.807 4530.81 924.875 4530.22 925.804 4529.32C926.578 4528.57 927.048 4527.35 926.893 4526C923.796 4490.54 899.498 4473.88 850.257 4473.88Z" fill="#72FF4F" fill-opacity="0.5"/>
<g filter="url(#filter3_f_303_98)">
<ellipse cx="2996.02" cy="2948.75" rx="2495.24" ry="2491.75" fill="#72FF4F" fill-opacity="0.2"/>
</g>
<g filter="url(#filter4_i_303_98)">
<path fill-rule="evenodd" clip-rule="evenodd" d="M2536.49 3962.91C2895.94 4146.75 3299.02 4126.33 3614.84 3962.89V4365.64L3618.41 4365.55V4602.01H2536.49V3962.91Z" fill="#8F5933"/>
<path fill-rule="evenodd" clip-rule="evenodd" d="M2536.48 4298.48C2895.93 4482.34 3299.02 4461.91 3614.84 4298.48V4555.31L3857.7 4549.5L3860.71 4549.61C3860.71 5168.66 2318.31 5261.33 2318.31 4548.68L2324.33 4548.42L2536.48 4549.46V4298.48V4298.48Z" fill="#8F5933"/>
<path fill-rule="evenodd" clip-rule="evenodd" d="M1905.03 1754.29C2762.84 1230.21 3860.26 1416.58 4231.03 1762.16C4338.23 2009.67 4345.8 2248.41 4314.27 2504.67C4386.69 2454.81 4472.8 2466.22 4540.66 2512.66C4568.14 2725.31 4641.78 3145.96 4311.81 3164.21C4198.22 4521.16 2116.79 4690.06 1835.43 3168.65C1508.4 3157.82 1596.58 2732.69 1617.02 2528.54C1695.48 2471.26 1785.07 2500.09 1840.69 2525.71L1905.03 1754.29V1754.29Z" fill="#8F5933"/>
<path fill-rule="evenodd" clip-rule="evenodd" d="M1777.62 2328.95C1782.13 2340.83 1767.49 2352.71 1723.56 2374.31C1632.66 2417.87 1624.69 2426.93 1624.45 2495.18V2498.48C1624.45 2590.25 1639.1 2614 1702.16 2622.65C1766.36 2631.29 1806.91 2645.31 1818.18 2662.6C1822.67 2670.15 1827.19 2704.71 1827.19 2740.34C1827.19 2817 1851.96 2924.99 1882.37 2981.13C1967.97 3140.94 2190.96 3221.92 2461.26 3191.69C2594.16 3175.49 2671.87 3150.65 2756.34 3096.66C2882.49 3015.68 2941.05 2912.03 2950.06 2748.98C2956.82 2649.64 2956.82 2649.64 2990.61 2638.84C3034.53 2623.73 3143.78 2623.73 3188.83 2638.84C3223.74 2650.72 3223.74 2650.72 3223.74 2727.39C3223.74 2815.92 3247.39 2921.74 3278.92 2981.14C3364.52 3140.94 3587.52 3221.92 3856.69 3191.69C3990.72 3175.49 4068.43 3150.65 4152.9 3096.67C4279.04 3015.69 4337.61 2908.79 4348.87 2741.43C4356.75 2631.29 4351.13 2636.69 4475.01 2621.57C4538.08 2614.01 4552.73 2590.25 4552.73 2497.4C4552.73 2423.97 4540.33 2409.94 4435.59 2366.75L4372.51 2340.83L4274.53 2311.69L4202.46 2296.57C4163.04 2289.01 4112.35 2282.52 4090.95 2281.44C4068.43 2281.44 4012.12 2262.01 3955.81 2235.02C3862.32 2190.74 3857.82 2189.66 3747.45 2189.66C3621.31 2189.66 3532.33 2214.5 3460.25 2268.49C3438.85 2284.68 3393.8 2305.2 3362.26 2312.76C3329.6 2320.33 3268.79 2340.84 3227.12 2358.11C3117.87 2402.38 3061.56 2400.22 2921.91 2346.23C2861.09 2322.49 2803.65 2303.04 2795.77 2303.04C2787.87 2303.04 2761.98 2287.93 2738.33 2269.57C2663.99 2213.42 2580.65 2189.66 2452.25 2189.66C2343.01 2189.66 2336.25 2191.83 2239.4 2236.1C2174.07 2266.33 2123.39 2281.44 2092.98 2281.44C2068.19 2282.52 2014.13 2289.01 1973.59 2297.65L1777.62 2328.95V2328.95ZM2678.63 2468.24C2813.77 2510.36 2855.44 2567.58 2856.57 2712.27C2857.69 2788.93 2853.2 2813.77 2831.8 2855.87C2757.47 3001.64 2545.73 3083.71 2294.57 3065.35C2101.98 3050.24 2002.87 2998.41 1949.94 2883.95C1916.15 2809.45 1911.65 2631.29 1943.17 2576.21C1972.46 2524.38 2028.78 2488.76 2121.13 2465C2193.21 2446.65 2232.63 2444.49 2412.83 2446.65C2568.25 2449.88 2635.83 2455.28 2678.63 2468.24V2468.24ZM4075.18 2468.24C4210.34 2510.36 4252 2567.58 4253.14 2712.27C4254.26 2788.93 4249.75 2813.77 4228.35 2855.87C4154.02 3001.64 3942.28 3083.71 3691.13 3065.35C3498.54 3050.24 3399.42 2998.41 3346.49 2883.95C3312.7 2809.45 3308.21 2631.29 3339.74 2576.21C3369.02 2524.38 3425.33 2488.76 3517.68 2465C3589.77 2446.65 3629.18 2444.49 3809.38 2446.65C3964.81 2449.88 4032.38 2455.28 4075.18 2468.24V2468.24Z" fill="#8F5933"/>
<path fill-rule="evenodd" clip-rule="evenodd" d="M2786.75 698.843L2715.79 743.117L2679.75 709.641C2623.44 656.736 2596.41 666.454 2553.61 753.915C2527.71 807.901 2495.05 814.384 2438.74 778.747C2416.21 763.633 2388.05 750.674 2376.79 750.674C2352.02 750.674 2328.36 787.385 2318.23 835.974C2310.34 875.926 2283.31 912.637 2260.79 912.637C2252.91 912.637 2223.62 902.919 2195.47 891.04C2152.66 872.685 2139.15 871.605 2115.5 881.322C2088.47 893.201 2086.22 899.678 2086.22 970.945C2086.22 1022.78 2078.33 1062.73 2063.69 1092.96C2042.29 1138.31 2041.16 1139.39 1988.23 1139.39C1900.38 1139.39 1858.71 1181.5 1901.51 1227.93C1924.04 1250.6 1909.39 1274.36 1865.47 1284.08C1784.38 1303.52 1760.73 1353.19 1804.65 1406.09C1835.06 1443.88 1833.94 1449.28 1785.5 1470.88C1734.83 1494.63 1726.94 1521.63 1759.6 1555.1C1784.38 1581.02 1784.38 1582.09 1770.86 1724.63C1757.35 1862.84 1761.86 2248.32 1777.62 2288.27C1782.13 2300.15 1767.49 2312.03 1723.56 2333.62C1631.21 2377.89 1624.45 2386.53 1624.45 2457.79C1624.45 2549.57 1639.1 2573.33 1702.17 2581.97C1766.36 2590.6 1806.91 2604.64 1818.17 2621.92C1822.67 2629.48 1827.18 2664.03 1827.18 2699.66C1827.18 2776.33 1851.96 2884.3 1882.37 2940.45C1967.96 3100.26 2190.96 3181.24 2461.27 3151.01C2594.17 3134.81 2671.87 3109.98 2756.34 3055.99C2882.48 2975.01 2941.05 2871.34 2950.06 2708.3C2956.82 2608.96 2956.82 2608.96 2990.61 2598.17C3034.53 2583.05 3143.78 2583.05 3188.83 2598.17C3223.74 2610.05 3223.74 2610.05 3223.74 2686.71C3223.74 2775.25 3247.39 2881.07 3278.93 2940.46C3364.52 3100.27 3587.52 3181.24 3856.69 3151.02C3990.72 3134.81 4068.43 3109.98 4152.9 3056C4279.04 2975.01 4337.61 2868.12 4348.87 2700.75C4356.75 2590.61 4351.12 2596.01 4475.01 2580.89C4538.08 2573.34 4552.73 2549.58 4552.73 2456.72C4552.73 2383.3 4540.33 2369.26 4435.59 2326.07L4372.52 2300.15V2192.18C4371.39 2007.53 4328.6 1815.34 4281.29 1773.23C4134.13 1712.57 4162.28 1725.46 4134.13 1712.5C4031.44 1666.63 4148.8 1719.51 4134.13 1712.57C4120.61 1725.53 4141.64 1803.46 4175.43 1868.25C4217.1 1948.15 4254.26 2083.12 4266.65 2199.74L4274.54 2271.01L4202.46 2255.89C4163.03 2248.33 4112.35 2241.85 4090.95 2240.77C4068.43 2240.77 4012.12 2221.34 3955.8 2194.34C3862.32 2150.07 3857.82 2148.99 3747.45 2148.99C3621.3 2148.99 3532.33 2173.83 3460.25 2227.81C3438.85 2244.01 3393.8 2264.52 3362.27 2272.09C3329.61 2279.64 3268.79 2300.16 3227.12 2317.43C3117.87 2361.71 3061.56 2359.55 2921.9 2305.56C2861.09 2281.8 2803.65 2262.37 2795.76 2262.37C2787.88 2262.37 2761.98 2247.25 2738.32 2228.89C2663.99 2172.75 2580.65 2148.99 2452.25 2148.99C2343.01 2148.99 2336.25 2151.15 2239.39 2195.42C2174.06 2225.65 2123.39 2240.77 2092.98 2240.77C2068.2 2241.85 2014.14 2248.33 1973.6 2256.97C1858.72 2280.72 1867.73 2294.76 1876.73 2113.36C1883.49 1957.87 1904.89 1826.14 1929.67 1780.79C1957.83 1730.04 2180.82 1620.98 2401.57 1549.72C2675.25 1462.26 2982.72 1428.78 3329.61 1451.46C3626.94 1469.81 3705.78 1493.56 4034.65 1663.09C4149.52 1722.48 4134.13 1712.57 4281.29 1773.23C4321.84 1778.63 4325.22 1776.47 4337.6 1744.07C4364.64 1669.57 4343.24 1481.69 4298.19 1396.39C4264.4 1333.76 4262.15 1310 4281.29 1245.22C4294.81 1199.87 4294.81 1190.15 4277.92 1166.4C4262.15 1143.72 4250.88 1139.4 4205.84 1139.4C4176.55 1140.48 4131.5 1144.8 4105.6 1149.12C4059.42 1157.76 4058.3 1157.76 4063.93 1129.69C4086.45 1023.87 4059.42 1000.11 3950.17 1027.1C3915.26 1035.74 3882.6 1041.14 3880.34 1037.9C3876.97 1034.67 3880.34 1002.27 3888.23 966.641C3901.74 908.334 3900.62 898.616 3884.85 882.415C3867.96 867.301 3857.82 867.301 3792.5 879.18C3687.76 899.696 3648.33 889.978 3610.04 833.826C3570.63 778.759 3534.58 759.323 3497.42 773.357C3477.14 780.914 3455.75 777.679 3415.2 760.404C3372.4 743.129 3347.62 738.807 3309.33 744.203C3269.92 750.686 3248.51 746.364 3211.35 728.009C3173.06 709.653 3151.66 706.412 3105.48 711.808C3055.93 717.21 3037.9 712.889 2980.47 685.896C2944.43 668.621 2901.63 654.581 2885.86 653.5C2870.09 653.5 2826.17 674.017 2786.75 698.855L2786.75 698.843ZM2678.62 2427.56C2813.78 2469.67 2855.45 2526.9 2856.57 2671.59C2857.7 2748.25 2853.19 2773.09 2831.8 2815.2C2757.46 2960.97 2545.73 3043.03 2294.57 3024.68C2101.98 3009.56 2002.87 2957.73 1949.94 2843.27C1916.15 2768.77 1911.64 2590.6 1943.18 2535.54C1972.46 2483.71 2028.78 2448.08 2121.13 2424.32C2193.21 2405.96 2232.63 2403.8 2412.83 2405.96C2568.25 2409.21 2635.82 2414.6 2678.62 2427.56ZM4075.18 2427.56C4210.33 2469.67 4252 2526.9 4253.13 2671.59C4254.26 2748.25 4249.75 2773.09 4228.35 2815.2C4154.02 2960.97 3942.28 3043.03 3691.13 3024.68C3498.54 3009.56 3399.43 2957.73 3346.5 2843.27C3312.71 2768.77 3308.2 2590.6 3339.74 2535.54C3369.02 2483.71 3425.33 2448.08 3517.68 2424.32C3589.77 2405.96 3629.19 2403.8 3809.38 2405.96C3964.81 2409.21 4032.38 2414.6 4075.18 2427.56Z" fill="#1D1615"/>
<path fill-rule="evenodd" clip-rule="evenodd" d="M2315.97 2558.22C2256.27 2585.21 2187.57 2653.23 2187.57 2685.63C2187.57 2710.46 2205.59 2710.46 2240.51 2683.47C2331.73 2614.36 2525.45 2614.36 2624.56 2682.39C2643.7 2694.27 2663.98 2705.06 2670.74 2705.06C2694.39 2705.06 2683.12 2666.19 2647.09 2625.16C2599.78 2569.01 2515.31 2532.3 2435.35 2532.3C2393.68 2532.3 2354.26 2540.94 2315.97 2558.21V2558.22V2558.22Z" fill="#533824"/>
<path fill-rule="evenodd" clip-rule="evenodd" d="M2316.39 2819.81C2256.69 2792.82 2187.99 2724.8 2187.99 2692.4C2187.99 2667.57 2206.01 2667.57 2240.93 2694.56C2332.15 2763.67 2525.87 2763.67 2624.98 2695.64C2644.12 2683.76 2664.4 2672.97 2671.16 2672.97C2694.81 2672.97 2683.54 2711.84 2647.51 2752.88C2600.2 2809.02 2515.73 2845.73 2435.77 2845.73C2394.09 2845.73 2354.68 2837.1 2316.39 2819.82V2819.81V2819.81Z" fill="#533824"/>
<path fill-rule="evenodd" clip-rule="evenodd" d="M3627.66 2850.79C3567.6 2840.53 3498.45 2814.67 3498.45 2802.35C3498.45 2792.91 3516.59 2792.91 3551.73 2803.17C3643.53 2829.44 3838.48 2829.44 3938.22 2803.58C3957.48 2799.06 3977.89 2794.96 3984.69 2794.96C4008.49 2794.96 3997.16 2809.74 3960.89 2825.34C3913.29 2846.69 3828.28 2860.65 3747.81 2860.65C3705.87 2860.65 3666.2 2857.36 3627.66 2850.79Z" fill="#533824"/>
<path fill-rule="evenodd" clip-rule="evenodd" d="M2826.16 3074.35C2838.56 3120.78 2874.59 3157.49 2937.66 3186.65C2988.34 3210.4 3014.25 3215.8 3088.58 3215.8C3162.91 3215.8 3188.82 3210.4 3239.5 3186.65C3302.57 3157.49 3338.61 3120.78 3350.99 3074.35L3356.63 3050.59H3088.58H2820.53L2826.16 3074.35V3074.35Z" fill="#825332"/>
<path fill-rule="evenodd" clip-rule="evenodd" d="M1777.62 2288.27C1782.13 2300.15 1767.49 2312.03 1723.56 2333.62C1632.66 2377.19 1624.69 2386.26 1624.45 2454.5V2457.8C1624.45 2549.58 1639.1 2573.32 1702.16 2581.97C1766.36 2590.6 1806.91 2604.64 1818.18 2621.92C1822.67 2629.48 1827.19 2664.03 1827.19 2699.66C1827.19 2776.33 1851.96 2884.31 1882.37 2940.45C1967.97 3100.26 2190.96 3181.24 2461.26 3151.01C2594.16 3134.8 2671.87 3109.98 2756.34 3055.98C2882.49 2975.01 2941.05 2871.35 2950.06 2708.31C2956.82 2608.96 2956.82 2608.96 2990.61 2598.16C3034.53 2583.05 3143.78 2583.05 3188.83 2598.16C3223.74 2610.04 3223.74 2610.04 3223.74 2686.71C3223.74 2775.24 3247.39 2881.07 3278.92 2940.46C3364.52 3100.26 3587.52 3181.24 3856.69 3151.01C3990.72 3134.81 4068.43 3109.98 4152.9 3056C4279.04 2975.02 4337.61 2868.11 4348.87 2700.75C4356.75 2590.6 4351.13 2596.01 4475.01 2580.89C4538.08 2573.34 4552.73 2549.58 4552.73 2456.71C4552.73 2383.29 4540.33 2369.26 4435.59 2326.07L4372.51 2300.15L4274.53 2271.01L4202.46 2255.88C4163.04 2248.33 4112.35 2241.84 4090.95 2240.76C4068.43 2240.76 4012.12 2221.33 3955.81 2194.34C3862.32 2150.07 3857.82 2148.99 3747.45 2148.99C3621.31 2148.99 3532.33 2173.83 3460.25 2227.82C3438.85 2244.01 3393.8 2264.52 3362.26 2272.08C3329.6 2279.64 3268.79 2300.16 3227.12 2317.43C3117.87 2361.71 3061.56 2359.55 2921.91 2305.55C2861.09 2281.81 2803.65 2262.36 2795.77 2262.36C2787.87 2262.36 2761.98 2247.25 2738.33 2228.9C2663.99 2172.74 2580.65 2148.99 2452.25 2148.99C2343.01 2148.99 2336.25 2151.15 2239.4 2195.42C2174.07 2225.66 2123.39 2240.76 2092.98 2240.76C2068.19 2241.84 2014.13 2248.33 1973.59 2256.96L1777.62 2288.27V2288.27ZM2678.63 2427.57C2813.77 2469.68 2855.44 2526.9 2856.57 2671.59C2857.69 2748.26 2853.2 2773.1 2831.8 2815.2C2757.47 2960.97 2545.73 3043.04 2294.57 3024.67C2101.98 3009.56 2002.87 2957.73 1949.94 2843.28C1916.15 2768.77 1911.65 2590.6 1943.17 2535.54C1972.46 2483.71 2028.78 2448.08 2121.13 2424.32C2193.21 2405.97 2232.63 2403.81 2412.83 2405.97C2568.25 2409.2 2635.83 2414.61 2678.63 2427.57V2427.57ZM4075.18 2427.57C4210.34 2469.68 4252 2526.9 4253.14 2671.59C4254.26 2748.26 4249.75 2773.1 4228.35 2815.2C4154.02 2960.97 3942.28 3043.04 3691.13 3024.67C3498.54 3009.56 3399.42 2957.73 3346.49 2843.28C3312.7 2768.77 3308.21 2590.6 3339.74 2535.54C3369.02 2483.71 3425.33 2448.08 3517.68 2424.32C3589.77 2405.97 3629.18 2403.81 3809.38 2405.97C3964.81 2409.2 4032.38 2414.61 4075.18 2427.57V2427.57Z" fill="#1C2533"/>
<path fill-rule="evenodd" clip-rule="evenodd" d="M2686.75 3517.51C2704.97 3606.99 2793.3 3698.63 2902.67 3741.75C2982.58 3774.1 3129.8 3780.56 3213.93 3755.77C3340.12 3718.04 3449.48 3616.69 3469.11 3517.51H2686.75V3517.51Z" fill="#3E291B"/>
<path d="M2756.37 2674.77C2770.05 2685.85 2783.49 2696.74 2797.16 2707.01C2793.89 2710.03 2790.61 2713.05 2787.33 2716.08C2750.3 2750.3 2712.81 2784.96 2664.33 2813.01C2606.71 2846.36 2533.31 2870.41 2427.59 2870.41C2226.28 2870.41 2105.08 2778.98 2013.87 2705.54C2104.44 2629.3 2225.82 2545.92 2427.59 2545.92C2597.29 2545.92 2680.48 2613.3 2756.37 2674.77Z" fill="#D9D1BD" stroke="black" stroke-width="27.405"/>
<path d="M3414.16 2674.77C3400.48 2685.85 3387.04 2696.74 3373.37 2707.01C3376.65 2710.03 3379.92 2713.05 3383.2 2716.08C3420.23 2750.3 3457.72 2784.96 3506.2 2813.01C3563.82 2846.36 3637.23 2870.41 3742.94 2870.41C3944.26 2870.41 4065.46 2778.98 4156.66 2705.54C4066.09 2629.3 3944.71 2545.92 3742.94 2545.92C3573.25 2545.92 3490.05 2613.3 3414.16 2674.77Z" fill="#D9D1BD" stroke="black" stroke-width="27.405"/>
<ellipse cx="2403.14" cy="2715.2" rx="48.898" ry="42.2269" fill="black"/>
<ellipse cx="3762.5" cy="2715.2" rx="48.898" ry="42.2269" fill="black"/>
<path d="M1869.04 1613.27C1848.47 1590.51 1830.67 1559.29 1818.14 1531.8C1813.3 1521.19 1803.17 1514.53 1797.87 1504.36C1790.92 1491.03 1771.57 1482.37 1767.69 1469.35C1761.2 1447.54 1754.97 1435.78 1755.53 1411.87C1756.07 1388.67 1767.71 1362.88 1787.06 1348.77C1812.16 1330.47 1849.93 1344.88 1878.95 1344.88C1887.79 1344.88 1898.48 1346.5 1907.1 1344.66C1913.08 1343.39 1909.58 1308.72 1909.58 1303.82C1909.58 1279.78 1915.82 1245.41 1896.96 1226.02C1875.75 1204.22 1856.87 1171.38 1856.87 1140.45C1856.87 1127.39 1853.48 1111.31 1863.63 1101.12C1883.96 1080.71 1906.44 1069.13 1934.8 1063.08C1995.61 1050.12 2066.55 1049.54 2108.22 1102.85C2132.49 1133.9 2134.12 1087.73 2132.31 1072.16C2129.35 1046.61 2125.92 1017.74 2120.15 992.852C2106.77 935.079 2098.1 851.559 2151.46 809.816C2168.63 796.383 2189.24 776.969 2212.71 776.969C2228.63 776.969 2244.55 776.969 2260.46 776.969C2278.88 776.969 2293.49 777.934 2310.46 785.613C2347.4 802.333 2369.09 831.065 2396.94 857.79C2415.16 875.268 2444.69 799.665 2444.69 783.02C2444.69 747.823 2454.39 725.875 2487.93 704.792C2531.9 677.147 2595.88 655.439 2649.18 656.386C2700.67 657.3 2742.26 698.926 2771.25 735.478C2779.89 746.371 2783.84 759.445 2792.87 770.27C2799.98 778.804 2800.2 749.481 2805.48 739.8C2817.04 718.625 2834.99 699.638 2855.93 686.64C2892.08 664.193 2938.04 665.059 2979.35 664.381C3068.86 662.913 3158.5 664.165 3248.03 664.165C3328.05 664.165 3425.32 708.338 3447.8 788.855C3461.31 837.257 3474.92 891.326 3414.01 907.061C3347.36 924.279 3278.24 860.352 3256.36 805.926C3247.76 784.523 3253.81 762.049 3256.36 739.8C3260.21 706.268 3265.06 660.873 3287.89 633.911C3301.34 618.031 3316.57 605.818 3338.34 605.818C3401.85 605.818 3465.36 605.818 3528.87 605.818C3577.41 605.818 3610.21 607.727 3653.19 629.157C3681.03 643.035 3720.24 667.762 3724.81 700.038C3735.04 772.329 3716.88 874.238 3648.91 917.001C3619.56 935.473 3566.41 963.247 3529.1 963.247C3511.47 963.247 3490.44 936.023 3480.23 925.645C3461.06 906.171 3440.8 884.883 3426.85 861.464C3404.69 824.256 3466.67 824.008 3491.49 819.973C3565.83 807.883 3638.01 803.024 3713.32 804.414C3747.07 805.036 3780.68 807.867 3814.45 808.087C3829.17 808.183 3847.76 805.137 3861.29 812.409C3896.48 831.319 3919.24 861.796 3942.82 891.718C3991.5 953.493 4041.57 1033.02 4004.53 1112.79C3990.69 1142.59 3917.89 1237.54 3871.65 1193.18C3817.69 1141.4 3988.43 1052.08 4030.88 1043.64C4065.51 1036.75 4103.94 1034.96 4139.43 1037.8C4174.42 1040.6 4210.32 1072.74 4238.75 1090.1C4279.74 1115.13 4322.49 1137.29 4354.06 1173.73C4381.97 1205.93 4404.54 1251.98 4413.97 1292.58C4424.97 1339.96 4433.51 1399.17 4394.15 1436.94C4356.89 1472.69 4321.84 1481.2 4272.08 1478C4211.01 1474.06 4166.29 1454.88 4160.38 1392.42C4158.26 1370.1 4163.8 1368.22 4183.8 1368.22C4218.31 1368.22 4252.72 1372.31 4283.79 1387.67C4340.53 1415.71 4381.42 1472.04 4393.7 1532.45C4398.91 1558.07 4392 1585.19 4396.85 1611.11C4402.18 1639.58 4404.69 1664.43 4396.63 1692.8C4375.41 1767.45 4310.72 1812.76 4230.19 1811.65C4197.02 1811.2 4175.69 1791.7 4175.69 1761.09C4175.69 1727.38 4172.53 1624.94 4222.31 1624.94C4236.79 1624.94 4236.5 1644.21 4236.5 1654.33C4236.5 1656.81 4238.51 1673.25 4235.6 1674.65C4224.13 1680.15 4188.14 1636.11 4184.7 1632.29C4117.91 1558.13 4059.73 1471.93 4007.46 1387.67C3974.74 1334.93 3943 1285.41 3927.5 1224.73C3921.95 1202.99 3908.39 1089.48 3944.62 1084.26C3972.48 1080.25 3985.35 1134.35 3990.56 1149.96C4006.41 1197.38 4018.67 1268.57 3985.16 1312.03C3952.63 1354.22 3873.29 1359.13 3825.71 1370.38C3766.71 1384.32 3707.42 1394.91 3649.59 1412.95C3605.45 1426.71 3568.7 1449.34 3522.12 1457.47C3486.77 1463.63 3451.83 1457.98 3423.92 1432.61C3366.9 1380.78 3354.93 1328.01 3356.81 1254.12C3357.33 1233.5 3370.78 1214.21 3392.39 1209.6C3410.1 1205.82 3405.45 1266.18 3405.45 1274C3405.45 1330.6 3395.15 1384.67 3348.7 1421.81C3311.95 1451.19 3262 1477.27 3214.47 1482.97C3178.41 1487.29 3142.95 1484.26 3110.87 1466.76C3084.01 1452.1 3039.28 1436.67 3022.14 1410.36C3004.77 1383.69 2999.72 1323.83 3030.47 1302.09C3083.24 1264.78 3087.07 1362.63 3082.5 1391.34C3072.01 1457.18 2993.73 1464.44 2939.26 1481.02C2892.91 1495.13 2846.98 1512.37 2799.63 1522.94C2769.64 1529.64 2747.6 1530.2 2724.4 1508.25C2673.07 1459.66 2647.38 1405.9 2647.38 1337.96C2647.38 1327.5 2645.21 1314.42 2648.28 1304.25C2655.02 1281.92 2678.48 1270.37 2691.97 1252.39C2695.73 1247.38 2695.55 1250.45 2693.32 1254.98C2685.22 1271.5 2677.16 1287.99 2667.65 1303.82C2651.3 1331.03 2646.83 1357.26 2636.8 1386.15C2620.69 1432.5 2595.93 1473.34 2552.56 1498.31C2496.27 1530.72 2441.85 1528.71 2379.37 1516.89C2338.91 1509.24 2299.57 1496.17 2274.42 1462.87C2261.32 1445.52 2243.23 1414.19 2241.99 1391.56C2241.14 1376.08 2261.04 1391.07 2266.32 1396.53C2285.37 1416.22 2304.44 1451.15 2312.71 1477.13C2319.18 1497.46 2321.26 1518.64 2316.76 1539.58C2311.99 1561.84 2309.09 1596.13 2292.22 1613.27C2248.59 1657.6 2187.88 1644.39 2129.61 1644.39C2111.34 1644.39 2107.9 1612.72 2104.16 1599.66C2094.4 1565.54 2094.78 1530.05 2096.28 1494.85C2097.28 1471.26 2127.15 1395.2 2165.87 1417.49C2194.64 1434.05 2191.04 1481.06 2188.39 1508.25C2184.04 1552.98 2156.63 1582.82 2130.74 1618.03C2110.15 1646.01 2088.32 1671.57 2063.4 1696.69C2031.44 1728.88 1955.79 1727.44 1930.52 1691.07C1908.96 1660.03 1917.68 1612.25 1917.68 1576.97C1917.68 1525.73 1911.64 1495.29 1949.21 1455.52C1970.68 1432.79 1993.59 1411.33 2015.2 1388.75C2036.99 1365.97 2052.4 1338.37 2074.43 1315.92C2170.94 1217.59 2315.86 1181.94 2438.38 1124.46C2468.54 1110.3 2504.39 1084.28 2537.93 1077.13C2549.83 1074.59 2550.25 1091.26 2545.58 1097.66C2525.22 1125.63 2477.46 1136.47 2445.14 1141.31C2357.58 1154.42 2264.86 1126.98 2182.99 1099.82C2133.63 1083.45 2108.7 1064.66 2080.74 1025.92C2075.37 1018.48 2075.21 1043.29 2071.05 1051.42C2061.41 1070.28 2049.4 1088.41 2037.95 1106.3C2033.18 1113.75 2031.67 1125.08 2022.86 1128.78C1999.89 1138.42 1974.61 1124.73 1953.49 1117.97C1935.18 1112.12 1966.23 1121.05 1971.96 1128.99C1978.87 1138.57 1972.67 1145.27 1966.55 1152.12C1962.63 1156.51 1965.54 1148.4 1966.55 1147.15C1988.14 1120.52 2030.28 1103.07 2060.02 1087.29C2094.14 1069.18 2128.93 1049.75 2165.42 1036.29C2173.84 1033.18 2178.89 1030.52 2183.44 1022.89C2190.54 1010.95 2181.39 990.988 2181.18 978.374C2180.8 954.913 2180.76 930.079 2201.45 913.976C2209.3 907.872 2221.5 892.467 2232.53 893.879C2258.56 897.209 2283.4 934.712 2289.74 956.764C2295.24 975.907 2275.89 938.178 2274.87 928.887C2272.7 909.108 2266.75 885.81 2293.79 890.637C2335.29 898.045 2367.37 927.257 2412.26 924.565C2446.09 922.536 2462.94 891.892 2464.73 862.76C2467.32 820.464 2503.33 814.44 2535.67 794.689C2553.98 783.513 2561.61 769.131 2581.62 762.274C2605.23 754.181 2635.18 748.434 2660.44 754.495C2704.91 765.161 2716.78 837.317 2715.4 872.053C2715.12 879.016 2715.16 892.514 2706.16 895.392C2697.75 898.082 2697 840.935 2696.93 837.909C2696.3 810.828 2701.1 738.578 2748.73 750.605C2775.76 757.431 2798.62 768.59 2828 769.189C2891.47 770.485 2953.01 766.487 3015.83 758.385C3049.39 754.057 3114.8 740.19 3143.75 762.923C3164.94 779.554 3112.37 801.981 3100.74 807.439C3088.58 813.143 3043.01 835.97 3027.99 826.672C3009.99 815.524 3102.66 761.84 3106.59 760.329C3134.77 749.515 3203.88 729.402 3229.79 757.088C3246.06 774.479 3238.88 812.139 3234.74 832.29C3230.26 854.079 3221.14 875.834 3212.22 896.256C3210.17 900.952 3182.34 960.303 3183.39 960.437C3190.95 961.404 3196.52 952.969 3202.76 948.768C3221.43 936.202 3240.58 924.429 3259.52 912.247C3289.55 892.926 3316.85 871.117 3341.49 845.689C3374.67 811.456 3398.67 769.752 3434.28 737.207C3463.91 710.136 3516.33 688.373 3556.57 683.83C3586.88 680.41 3655.25 678.192 3661.75 715.597C3669.3 759.059 3627.74 774.044 3589.68 784.749C3522.86 803.54 3449.09 813.252 3381.58 793.393C3345.15 782.677 3302.83 781.278 3276.41 752.118C3266.59 741.286 3253.32 730.211 3245.33 718.406C3234.77 702.825 3229.7 686.796 3217.18 672.377C3208.13 661.963 3194.98 652.807 3184.74 642.987C3152.37 611.924 3128.26 586.369 3077.09 586.369C3020.36 586.369 2954.77 575.927 2902.77 600.2C2872.72 614.23 2851.64 631.246 2825.75 650.767C2796.89 672.522 2787.79 746.323 2785.66 776.969C2782.31 825.157 2777.1 872.468 2777.1 920.891C2777.1 950.972 2773.81 983.569 2780.71 1013.17C2790.66 1055.9 2822.16 1088.19 2853.23 1118.41C2895.34 1159.37 2934.4 1209.94 2998.72 1191.02C3133.32 1151.42 3242.44 1071.26 3356.36 995.662C3394.9 970.087 3442.47 931.911 3489.01 918.946C3542.86 903.945 3604.94 909.222 3660.62 909.222C3686.18 909.222 3703.86 905.004 3727.96 899.497C3743.05 896.051 3768.08 893.578 3782.69 899.714C3828.17 918.804 3869.1 976.707 3866.47 1024.62C3864.65 1057.85 3833.6 1042.61 3829.99 1018.35C3824.45 981.177 3834.39 944.078 3877.51 936.883C3932.17 927.761 3938.15 1024.88 3951.83 1056.17C3964.15 1084.36 3976.88 1135.62 4009.48 1149.52C4024.16 1155.79 4047.47 1144.24 4059.71 1138.72C4081.62 1128.83 4097.41 1127.05 4120.96 1127.05C4141.86 1127.05 4150.87 1130.53 4154.75 1154.06C4159.04 1180.15 4157.54 1212.55 4146.41 1236.83C4141.21 1248.18 4107.37 1315.06 4091.46 1315.06C4087.31 1315.06 4093.02 1307.22 4094.16 1303.39C4098.94 1287.41 4103.94 1271.29 4110.38 1255.85C4113.34 1248.73 4117.95 1238.64 4123.89 1232.94C4138.5 1218.92 4173.9 1220.55 4191.91 1220.4C4217.47 1220.2 4246.06 1216.56 4270.73 1224.29C4317.73 1239.04 4354.06 1255.06 4354.06 1307.71C4354.06 1329.72 4358.55 1345.39 4332.89 1352.66C4306.36 1360.17 4275.54 1352.76 4255.42 1334.07C4223.29 1304.24 4276.2 1238.21 4286.72 1288.69C4287.21 1291.02 4293.44 1319.1 4282.44 1315.06C4252.92 1304.21 4237.72 1246.44 4229.52 1222.35C4216.49 1184.08 4208.88 1145.24 4208.12 1105.01C4207.99 1097.87 4205.54 1087.25 4212.4 1082.32C4221.73 1075.6 4221.34 1071.55 4226.36 1062.87C4235.12 1047.75 4250.25 1073.84 4254.29 1081.89C4258.94 1091.15 4257.83 1109.88 4250.91 1093.77C4247.78 1086.46 4248.66 1078.38 4248.66 1070.65C4248.66 1040.88 4285.07 1019.82 4309.47 1032.83C4319.49 1038.17 4331.8 1054.94 4336.95 1064.81C4345.47 1081.18 4341.9 1101.5 4341.9 1119.27" stroke="#1D1615" stroke-width="137.025" stroke-linecap="round"/>
<path d="M3855.43 1473.24C3855.43 1501.18 3852.95 1544.79 3885.84 1558.82C3917.42 1572.29 3956.4 1604.83 3993.27 1585.18C4013.04 1574.64 4034.76 1558.36 4049.79 1541.53C4064.2 1525.4 4078.35 1542.26 4092.36 1547.15C4109.69 1553.19 4125.42 1559.62 4144.84 1562.49C4160.09 1564.74 4150.03 1602.63 4141.23 1609.38C4132.01 1616.46 4145.44 1636.65 4129.3 1643.53C4115.18 1649.55 4116.57 1645.96 4120.74 1636.83C4127.75 1621.44 4128.18 1602.49 4130.2 1586.05C4133.24 1561.22 4131.89 1538.62 4120.96 1516.03C4113.53 1500.66 4101.26 1488.53 4093.71 1473.24C4080.88 1447.25 4119.43 1485.93 4123.89 1492.26C4138.8 1513.41 4147.31 1549.88 4147.31 1575.24C4147.31 1597.7 4139.21 1614.76 4139.21 1636.61C4139.21 1650.45 4128.21 1652.66 4118.94 1662.11C4114.36 1666.78 4140.82 1656.38 4138.98 1662.55C4137.48 1667.57 4114.79 1687.86 4120.74 1690.21C4126.16 1692.35 4146.37 1674.42 4152.94 1671.62C4172.97 1663.08 4167.58 1631.52 4167.58 1615.22C4167.58 1575.2 4146.75 1530.89 4122.09 1500.47C4084.07 1453.56 4016.42 1443.38 3965.79 1414.9C3922.15 1390.35 3862.56 1428.15 3818.95 1434.13C3799.34 1436.82 3776.26 1448.41 3763.1 1462.44C3757.5 1468.4 3765.66 1473.99 3756.11 1479.08C3751.37 1481.61 3737.38 1483.46 3733.82 1478.43C3711.36 1446.74 3745.39 1390.88 3759.04 1362.6C3768.79 1342.39 3771.95 1320.13 3784.04 1300.79C3793.1 1286.31 3804.98 1273.44 3814.9 1259.3C3837.56 1226.98 3861.89 1187.14 3891.69 1160.33C3910.97 1142.99 3928.19 1125.75 3950.47 1111.49C3963.51 1103.15 3976.7 1096.71 3987.41 1086.42C4001.33 1073.07 4009.45 1068.86 3986.06 1060.06C3969.12 1053.69 3941.97 1028.86 3934.48 1012.09C3926.16 993.454 3914.4 970.5 3900.03 955.9C3893.66 949.429 3885.73 940.513 3882.01 932.346C3872.6 911.704 3855.43 888.914 3855.43 866.435C3855.43 835.716 3877.23 832.747 3904.08 820.622C3911.2 817.406 3873.33 808.088 3891.92 808.088C3909.93 808.088 3922.09 812.617 3932.46 827.537" stroke="#1D1615" stroke-width="137.025" stroke-linecap="round"/>
<path d="M3940.57 994.798C3940.57 954.875 4001.46 952.011 4030.65 952.011C4045.15 952.011 4059.88 951.239 4074.35 952.011C4091.93 952.948 4114.33 985.947 4120.97 998.688C4133.76 1023.24 4151.37 1042.42 4151.37 1070.43C4151.37 1081.41 4153.62 1094.95 4151.14 1105.66C4146.36 1126.3 4134.46 1123.16 4114.88 1123.16" stroke="#1D1615" stroke-width="137.025" stroke-linecap="round"/>
<path d="M3466.26 613.599C3464.27 605.946 3447.74 602.363 3445.77 591.989C3444.17 583.525 3428.47 570.811 3419.64 570.811C3396.4 570.811 3416.06 563.031 3429.55 563.031C3443.82 563.031 3458.08 563.031 3472.34 563.031C3493.29 563.031 3514.23 563.031 3535.18 563.031C3565.3 563.031 3582.47 599.758 3595.99 621.378" stroke="#1D1615" stroke-width="137.025" stroke-linecap="round"/>
<path d="M3713.55 846.986C3715.36 827.863 3744.73 806.791 3758.14 794.258C3770.32 782.882 3784.94 784.749 3800.48 784.749C3833.96 784.749 3867.45 784.749 3900.93 784.749C3940.76 784.749 3973.68 819.493 3997.32 847.85C4013.01 866.666 4022.54 892.793 4038.76 910.087C4060.75 933.535 4065.61 956.95 4077.5 986.154C4097.18 1034.49 4077.18 1085.01 4021.64 1100.69C4004.33 1105.57 3994.03 1111.51 3975.25 1102.85C3954.71 1093.37 3933.14 1085.63 3932.46 1060.92C3931.77 1035.77 3926.3 1000.84 3934.26 977.078C3939.19 962.358 3957.49 953.569 3968.94 944.231C3983.61 932.267 4013.52 925.622 4032 920.892C4064.03 912.698 4091.79 904.022 4124.79 899.498C4162.84 894.283 4221.25 889.399 4255.19 907.494C4313.21 938.419 4331.03 987.358 4341.9 1047.31C4349.61 1089.87 4359.48 1133.15 4335.82 1173.51C4302.46 1230.41 4193.05 1266.72 4184.25 1167.46C4178.67 1104.53 4145.72 1017.86 4212.18 975.349" stroke="#1D1615" stroke-width="137.025" stroke-linecap="round"/>
<path d="M1897.42 1636.61C1884.59 1638.15 1873.09 1665.63 1873.09 1675.51C1873.09 1684.19 1875.35 1696.14 1872.87 1704.47C1869.75 1714.94 1861.88 1715.95 1856.88 1724.35C1846.93 1741.05 1822.28 1758.55 1816.11 1731.91C1813.5 1720.65 1811.68 1710.99 1812.28 1698.85C1813.38 1676.69 1815.95 1675.7 1832.55 1667.73" stroke="#1D1615" stroke-width="137.025" stroke-linecap="round"/>
<g filter="url(#filter5_d_303_98)">
<path fill-rule="evenodd" clip-rule="evenodd" d="M2320.01 4529.38C1987.78 4561.67 1680.68 4686.08 1429.52 4892.02C1213.4 5068.49 1153.1 5208.74 994.876 5408.48C1317.26 5742.21 1750.78 6024.98 2223.53 6181.16C2538.88 6284.68 2753.99 6318.08 3091.87 6318.08C3429.75 6318.08 3644.86 6284.68 3960.22 6181.16C4437.15 6028.97 4838.89 5779.58 5201.03 5421.62C4953 5102.18 4850.91 4892.81 4451.26 4696.09C4283.44 4612.61 4086.35 4552.5 3935.43 4536.91L3860.3 4529.38C3107.27 5042.09 3860.3 4529.38 3107.27 5042.09C2314.76 4530.23 3107.27 5042.09 2320.01 4529.38Z" fill="white"/>
<path d="M2316.17 4538.94L2316.22 4539.25L2317.98 4538.96C2512.82 4665.86 2610.15 4729.51 2658.68 4761.45C2683.08 4777.5 2695.1 4785.51 2700.96 4789.51C2702.86 4790.8 2704.04 4791.62 2704.76 4792.13C2704.78 4792.16 2704.8 4792.19 2704.82 4792.21C2705.7 4793.19 2706.79 4793.94 2706.9 4794.02C2707.79 4794.65 2709.44 4795.76 2712.46 4797.75C2718.59 4801.79 2730.95 4809.81 2755.66 4825.81C2805.08 4857.79 2904.03 4921.71 3101.85 5049.47L3102.31 5049.77C3105.4 5051.76 3109.37 5051.71 3112.41 5049.65L3116.8 5046.65L3121.16 5043.68L3125.49 5040.74L3129.78 5037.82L3134.04 5034.92L3138.27 5032.04L3142.46 5029.19L3146.62 5026.36L3150.74 5023.55L3154.83 5020.76L3158.89 5018L3162.91 5015.26L3166.91 5012.54L3170.86 5009.85L3174.79 5007.17L3178.69 5004.52L3182.55 5001.89L3186.38 4999.28L3190.17 4996.7L3193.94 4994.13L3197.67 4991.59L3201.38 4989.07L3205.05 4986.57L3208.69 4984.09L3212.29 4981.64L3215.87 4979.2L3219.42 4976.79L3222.93 4974.39L3226.42 4972.02L3229.87 4969.67L3233.29 4967.34L3236.69 4965.03L3240.05 4962.74L3243.38 4960.47L3246.69 4958.22L3249.96 4955.99L3253.2 4953.78L3256.42 4951.59L3259.6 4949.43L3262.76 4947.28L3265.89 4945.15L3268.98 4943.04L3272.05 4940.95L3275.09 4938.88L3278.1 4936.83L3281.09 4934.8L3284.04 4932.79L3286.97 4930.79L3289.87 4928.82L3292.74 4926.86L3295.58 4924.93L3298.4 4923.01L3301.19 4921.11L3303.95 4919.23L3306.68 4917.37L3309.39 4915.53L3312.07 4913.71L3314.72 4911.9L3317.35 4910.11L3319.95 4908.34L3322.52 4906.59L3325.07 4904.86L3327.59 4903.14L3330.08 4901.44L3332.55 4899.76L3334.99 4898.1L3337.41 4896.45L3339.8 4894.82L3342.17 4893.21L3344.51 4891.61L3346.83 4890.04L3349.12 4888.48L3351.39 4886.93L3353.63 4885.41L3355.85 4883.9L3358.04 4882.4L3360.21 4880.93L3362.36 4879.47L3364.48 4878.02L3366.57 4876.59L3368.65 4875.18L3370.7 4873.79L3372.73 4872.41L3374.73 4871.04L3376.71 4869.69L3378.67 4868.36L3380.6 4867.04L3382.51 4865.74L3384.4 4864.46L3386.27 4863.19L3388.11 4861.93L3389.93 4860.69L3391.73 4859.46L3393.51 4858.25L3395.27 4857.06L3397 4855.88L3398.71 4854.71L3400.41 4853.56L3402.08 4852.42L3403.72 4851.3L3405.35 4850.19L3406.96 4849.1L3408.55 4848.02L3410.11 4846.95L3411.66 4845.9L3413.18 4844.86L3414.69 4843.84L3416.17 4842.82L3417.64 4841.83L3419.08 4840.84L3420.51 4839.87L3421.91 4838.92L3423.3 4837.97L3424.67 4837.04L3426.01 4836.12L3427.34 4835.22L3428.65 4834.33L3429.94 4833.45L3431.22 4832.58L3432.47 4831.73L3433.71 4830.88L3434.93 4830.06L3436.13 4829.24L3437.31 4828.43L3438.47 4827.64L3439.62 4826.86L3440.75 4826.09L3441.86 4825.33L3442.95 4824.59L3444.03 4823.86L3445.09 4823.13L3446.14 4822.42L3447.16 4821.72L3448.17 4821.04L3449.17 4820.36L3450.14 4819.69L3451.1 4819.04L3452.05 4818.4L3452.98 4817.76L3453.89 4817.14L3454.79 4816.53L3455.67 4815.93L3456.54 4815.34L3457.39 4814.76L3458.23 4814.19L3459.05 4813.63L3459.86 4813.08L3460.65 4812.54L3461.43 4812.01L3462.19 4811.49L3462.94 4810.98L3463.68 4810.48L3464.4 4809.99L3465.11 4809.51L3465.8 4809.03L3466.48 4808.57L3467.15 4808.12L3467.8 4807.67L3468.44 4807.24L3469.07 4806.81L3469.68 4806.39L3470.28 4805.98L3470.87 4805.58L3471.45 4805.19L3472.01 4804.8L3472.56 4804.43L3473.1 4804.06L3473.63 4803.7L3474.15 4803.35L3474.65 4803.01L3475.14 4802.67L3475.62 4802.35L3476.09 4802.03L3476.55 4801.72L3477 4801.41L3477.43 4801.11L3477.86 4800.82L3478.27 4800.54L3478.68 4800.27L3479.07 4800L3479.46 4799.74L3479.83 4799.48L3480.19 4799.23L3480.55 4798.99L3480.89 4798.76L3481.23 4798.53L3481.55 4798.31L3481.87 4798.09L3482.17 4797.89L3482.47 4797.68L3482.76 4797.49L3483.04 4797.3L3483.31 4797.11L3483.57 4796.93L3483.83 4796.76L3484.08 4796.59L3484.31 4796.43L3484.54 4796.27L3484.77 4796.12L3484.98 4795.97L3485.19 4795.83L3485.39 4795.7L3485.58 4795.57L3485.77 4795.44L3485.95 4795.32L3486.12 4795.2L3486.28 4795.09L3486.44 4794.98L3486.59 4794.88L3486.74 4794.78L3486.88 4794.68L3487.01 4794.59L3487.14 4794.51L3487.26 4794.42L3487.38 4794.34L3487.49 4794.27L3487.59 4794.2L3487.69 4794.13L3487.79 4794.06L3487.88 4794L3487.96 4793.95L3488.04 4793.89L3488.12 4793.84L3488.19 4793.79L3488.25 4793.75L3488.32 4793.7L3488.38 4793.66L3488.43 4793.63L3488.48 4793.59L3488.53 4793.56L3488.57 4793.53L3488.61 4793.5L3488.65 4793.48L3488.68 4793.45L3488.72 4793.43L3488.74 4793.41L3488.77 4793.4L3488.79 4793.38L3488.81 4793.37L3488.83 4793.35L3488.85 4793.34L3488.86 4793.33L3488.87 4793.32L3488.88 4793.32L3488.89 4793.31L3488.9 4793.31L3488.91 4793.3L3488.91 4793.3L3488.92 4793.3L3488.92 4793.29L3488.92 4793.29L3488.92 4793.29L3483.78 4785.74L3488.92 4793.29L3488.93 4793.29L3488.93 4793.29L3488.93 4793.29L3488.93 4793.28L3488.94 4793.28L3488.95 4793.28L3488.95 4793.27L3488.96 4793.26L3488.97 4793.26L3488.99 4793.25L3489 4793.24L3489.02 4793.23L3489.03 4793.22L3489.05 4793.2L3489.08 4793.19L3489.1 4793.17L3489.13 4793.15L3489.16 4793.13L3489.2 4793.1L3489.23 4793.08L3489.27 4793.05L3489.32 4793.02L3489.37 4792.99L3489.42 4792.95L3489.47 4792.92L3489.53 4792.88L3489.59 4792.84L3489.66 4792.79L3489.73 4792.74L3489.81 4792.69L3489.89 4792.64L3489.97 4792.58L3490.06 4792.52L3490.15 4792.45L3490.25 4792.38L3490.36 4792.31L3490.47 4792.24L3490.59 4792.16L3490.71 4792.08L3490.84 4791.99L3490.97 4791.9L3491.11 4791.8L3491.25 4791.7L3491.41 4791.6L3491.56 4791.49L3491.73 4791.38L3491.9 4791.26L3492.08 4791.14L3492.26 4791.02L3492.46 4790.88L3492.66 4790.75L3492.86 4790.61L3493.08 4790.46L3493.3 4790.31L3493.53 4790.15L3493.77 4789.99L3494.02 4789.82L3494.27 4789.65L3494.53 4789.47L3494.81 4789.28L3495.09 4789.09L3495.38 4788.9L3495.67 4788.69L3495.98 4788.49L3496.3 4788.27L3496.62 4788.05L3496.96 4787.82L3497.3 4787.59L3497.65 4787.35L3498.02 4787.1L3498.39 4786.84L3498.77 4786.58L3499.17 4786.31L3499.57 4786.04L3499.99 4785.76L3500.41 4785.47L3500.85 4785.17L3501.3 4784.87L3501.76 4784.55L3502.22 4784.23L3502.71 4783.91L3503.2 4783.57L3503.7 4783.23L3504.22 4782.88L3504.74 4782.52L3505.28 4782.15L3505.83 4781.78L3506.4 4781.39L3506.97 4781L3507.56 4780.6L3508.16 4780.19L3508.78 4779.77L3509.41 4779.34L3510.05 4778.91L3510.7 4778.46L3511.37 4778.01L3512.05 4777.55L3512.74 4777.08L3513.45 4776.59L3514.17 4776.1L3514.9 4775.6L3515.65 4775.09L3516.42 4774.57L3517.19 4774.04L3517.99 4773.5L3518.79 4772.95L3519.62 4772.39L3520.45 4771.82L3521.3 4771.24L3522.17 4770.65L3523.05 4770.05L3523.95 4769.44L3524.87 4768.82L3525.8 4768.18L3526.74 4767.54L3527.7 4766.89L3528.68 4766.22L3529.67 4765.54L3530.69 4764.86L3531.71 4764.16L3532.76 4763.45L3533.82 4762.72L3534.89 4761.99L3535.99 4761.25L3537.1 4760.49L3538.23 4759.72L3539.38 4758.94L3540.54 4758.15L3541.72 4757.34L3542.92 4756.53L3544.14 4755.7L3545.38 4754.85L3546.63 4754L3547.9 4753.13L3549.19 4752.25L3550.5 4751.36L3551.83 4750.46L3553.18 4749.54L3554.55 4748.61L3555.93 4747.66L3557.34 4746.71L3558.77 4745.74L3560.21 4744.75L3561.68 4743.76L3563.16 4742.75L3564.67 4741.72L3566.19 4740.68L3567.74 4739.63L3569.3 4738.56L3570.89 4737.48L3572.49 4736.39L3574.12 4735.28L3575.77 4734.16L3577.44 4733.02L3579.13 4731.87L3580.85 4730.7L3582.58 4729.52L3584.34 4728.33L3586.11 4727.12L3587.91 4725.89L3589.74 4724.65L3591.58 4723.4L3593.45 4722.12L3595.34 4720.84L3597.25 4719.54L3599.18 4718.22L3601.14 4716.89L3603.12 4715.54L3605.12 4714.18L3607.15 4712.8L3609.2 4711.4L3611.27 4709.99L3613.37 4708.56L3615.49 4707.12L3617.64 4705.65L3619.81 4704.18L3622 4702.68L3624.22 4701.17L3626.46 4699.65L3628.73 4698.1L3631.02 4696.54L3633.33 4694.97L3635.68 4693.37L3638.04 4691.76L3640.44 4690.13L3642.85 4688.49L3645.3 4686.82L3647.77 4685.14L3650.26 4683.44L3652.78 4681.73L3655.33 4679.99L3657.9 4678.24L3660.5 4676.47L3663.13 4674.68L3665.78 4672.88L3668.46 4671.05L3671.17 4669.21L3673.9 4667.35L3676.66 4665.47L3679.45 4663.57L3682.26 4661.65L3685.11 4659.72L3687.98 4657.76L3690.88 4655.79L3693.8 4653.79L3696.76 4651.78L3699.74 4649.75L3702.75 4647.7L3705.79 4645.63L3708.86 4643.54L3711.96 4641.43L3715.09 4639.3L3718.24 4637.15L3721.43 4634.99L3724.64 4632.8L3727.89 4630.59L3731.16 4628.36L3734.46 4626.11L3737.8 4623.84L3741.16 4621.55L3744.55 4619.24L3747.98 4616.91L3751.43 4614.56L3754.91 4612.19L3758.43 4609.79L3761.98 4607.38L3765.55 4604.94L3769.16 4602.49L3772.8 4600.01L3776.47 4597.51L3780.17 4594.99L3783.91 4592.45L3787.67 4589.88L3791.47 4587.3L3795.3 4584.69L3799.16 4582.06L3803.06 4579.41L3806.98 4576.74L3810.94 4574.04L3814.93 4571.32L3818.96 4568.58L3823.02 4565.82L3827.11 4563.03L3831.23 4560.23L3835.39 4557.39L3839.58 4554.54L3843.8 4551.66L3848.06 4548.77L3852.36 4545.84L3856.68 4542.9L3861.04 4539.93L3862.69 4538.8L3934.49 4545.99C3934.5 4546 3934.51 4546 3934.51 4546C4084.15 4561.46 4280.17 4621.19 4447.19 4704.27L4447.22 4704.29C4775.55 4865.9 4901.27 5035.4 5075.38 5270.14C5110.54 5317.54 5147.67 5367.61 5188.85 5420.81C4829.17 5774.77 4430.39 6021.54 3957.44 6172.45L3957.37 6172.48C3642.96 6275.69 3428.82 6308.94 3091.87 6308.94C2754.93 6308.94 2540.78 6275.69 2226.38 6172.48C1757.81 6017.67 1327.82 5738.08 1007 5407.86C1052.78 5349.69 1090.27 5296.76 1125.78 5246.62C1211.06 5126.21 1285.01 5021.81 1435.29 4899.1L1435.31 4899.09C1683.82 4695.32 1987.48 4571.78 2316.17 4538.94ZM2713.2 4795.06C2713.22 4795.06 2713.29 4795.05 2713.34 4795.04C2713.14 4795.08 2713.04 4795.09 2713.13 4795.08L2713.2 4795.06Z" stroke="#7C7C7C" stroke-width="18.27" stroke-linejoin="round"/>
</g>
<path fill-rule="evenodd" clip-rule="evenodd" d="M2468.14 4094.57L2443.69 4079.92C2429.32 4075.8 2496.91 4046.9 2521.91 4035.98C2595.42 4003.9 2691.29 4010.46 2811.13 4056.39C2857.39 4068.84 2924.3 4102.16 2978.11 4119.09C3096.64 4157.34 3157.19 4135.38 3264.13 4093.58L3357.61 4056.39C3477.45 4010.46 3573.32 4003.9 3646.83 4035.98C3671.47 4046.61 3695.81 4060.4 3714.35 4075.14L3719.93 4084.81C3505.41 4234.12 2839.97 4315.75 2468.14 4094.57Z" fill="#1D1615"/>
<path d="M3980.71 5574.66L4036.53 5294.25" stroke="#72FF4F" stroke-opacity="0.5" stroke-width="27.405" stroke-linecap="round"/>
<path d="M4101.53 5281.36L4281.79 5430.7C4286.3 5434.44 4286.18 5441.4 4281.53 5444.98L4101.53 5583.45" stroke="#72FF4F" stroke-opacity="0.5" stroke-width="27.405" stroke-linecap="round"/>
<path d="M3950.27 5319.12L3815.55 5429.26C3810.98 5433 3811.1 5440.04 3815.81 5443.61L3950.27 5545.69" stroke="#72FF4F" stroke-opacity="0.5" stroke-width="27.405" stroke-linecap="round"/>
<path d="M3912.46 5281.36L3732.19 5430.7C3727.68 5434.44 3727.81 5441.4 3732.45 5444.98L3912.46 5583.45" stroke="#72FF4F" stroke-opacity="0.5" stroke-width="27.405" stroke-linecap="round"/>
<path d="M4063.71 5319.12L4198.43 5429.26C4203.01 5433 4202.88 5440.04 4198.18 5443.61L4063.71 5545.69" stroke="#72FF4F" stroke-opacity="0.5" stroke-width="27.405" stroke-linecap="round"/>
</g>
<defs>
<filter id="filter0_d_303_98" x="4736.83" y="2432.37" width="1613.92" height="1612.94" filterUnits="userSpaceOnUse" color-interpolation-filters="sRGB">
<feFlood flood-opacity="0" result="BackgroundImageFix"/>
<feColorMatrix in="SourceAlpha" type="matrix" values="0 0 0 0 0 0 0 0 0 0 0 0 0 0 0 0 0 0 127 0" result="hardAlpha"/>
<feOffset dy="36.54"/>
<feGaussianBlur stdDeviation="228.375"/>
<feComposite in2="hardAlpha" operator="out"/>
<feColorMatrix type="matrix" values="0 0 0 0 0 0 0 0 0 0 0 0 0 0 0 0 0 0 0.5 0"/>
<feBlend mode="normal" in2="BackgroundImageFix" result="effect1_dropShadow_303_98"/>
<feBlend mode="normal" in="SourceGraphic" in2="effect1_dropShadow_303_98" result="shape"/>
</filter>
<filter id="filter1_d_303_98" x="0.250427" y="1540.58" width="1613.92" height="1612.94" filterUnits="userSpaceOnUse" color-interpolation-filters="sRGB">
<feFlood flood-opacity="0" result="BackgroundImageFix"/>
<feColorMatrix in="SourceAlpha" type="matrix" values="0 0 0 0 0 0 0 0 0 0 0 0 0 0 0 0 0 0 127 0" result="hardAlpha"/>
<feOffset dy="36.54"/>
<feGaussianBlur stdDeviation="228.375"/>
<feComposite in2="hardAlpha" operator="out"/>
<feColorMatrix type="matrix" values="0 0 0 0 0 0 0 0 0 0 0 0 0 0 0 0 0 0 0.5 0"/>
<feBlend mode="normal" in2="BackgroundImageFix" result="effect1_dropShadow_303_98"/>
<feBlend mode="normal" in="SourceGraphic" in2="effect1_dropShadow_303_98" result="shape"/>
</filter>
<filter id="filter2_d_303_98" x="0.250427" y="3778.79" width="1613.92" height="1612.94" filterUnits="userSpaceOnUse" color-interpolation-filters="sRGB">
<feFlood flood-opacity="0" result="BackgroundImageFix"/>
<feColorMatrix in="SourceAlpha" type="matrix" values="0 0 0 0 0 0 0 0 0 0 0 0 0 0 0 0 0 0 127 0" result="hardAlpha"/>
<feOffset dy="36.54"/>
<feGaussianBlur stdDeviation="228.375"/>
<feComposite in2="hardAlpha" operator="out"/>
<feColorMatrix type="matrix" values="0 0 0 0 0 0 0 0 0 0 0 0 0 0 0 0 0 0 0.5 0"/>
<feBlend mode="normal" in2="BackgroundImageFix" result="effect1_dropShadow_303_98"/>
<feBlend mode="normal" in="SourceGraphic" in2="effect1_dropShadow_303_98" result="shape"/>
</filter>
<filter id="filter3_f_303_98" x="44.0253" y="0.250427" width="5903.98" height="5897" filterUnits="userSpaceOnUse" color-interpolation-filters="sRGB">
<feFlood flood-opacity="0" result="BackgroundImageFix"/>
<feBlend mode="normal" in="SourceGraphic" in2="BackgroundImageFix" result="shape"/>
<feGaussianBlur stdDeviation="228.375" result="effect1_foregroundBlur_303_98"/>
</filter>
<filter id="filter4_i_303_98" x="994.876" y="494.519" width="4206.16" height="5860.1" filterUnits="userSpaceOnUse" color-interpolation-filters="sRGB">
<feFlood flood-opacity="0" result="BackgroundImageFix"/>
<feBlend mode="normal" in="SourceGraphic" in2="BackgroundImageFix" result="shape"/>
<feColorMatrix in="SourceAlpha" type="matrix" values="0 0 0 0 0 0 0 0 0 0 0 0 0 0 0 0 0 0 127 0" result="hardAlpha"/>
<feOffset dy="36.54"/>
<feGaussianBlur stdDeviation="18.27"/>
<feComposite in2="hardAlpha" operator="arithmetic" k2="-1" k3="1"/>
<feColorMatrix type="matrix" values="0 0 0 0 0 0 0 0 0 0 0 0 0 0 0 0 0 0 0.25 0"/>
<feBlend mode="normal" in2="shape" result="effect1_innerShadow_303_98"/>
</filter>
<filter id="filter5_d_303_98" x="958.336" y="4529.38" width="4279.24" height="1861.77" filterUnits="userSpaceOnUse" color-interpolation-filters="sRGB">
<feFlood flood-opacity="0" result="BackgroundImageFix"/>
<feColorMatrix in="SourceAlpha" type="matrix" values="0 0 0 0 0 0 0 0 0 0 0 0 0 0 0 0 0 0 127 0" result="hardAlpha"/>
<feOffset dy="36.54"/>
<feGaussianBlur stdDeviation="18.27"/>
<feComposite in2="hardAlpha" operator="out"/>
<feColorMatrix type="matrix" values="0 0 0 0 0 0 0 0 0 0 0 0 0 0 0 0 0 0 0.25 0"/>
<feBlend mode="normal" in2="BackgroundImageFix" result="effect1_dropShadow_303_98"/>
<feBlend mode="normal" in="SourceGraphic" in2="effect1_dropShadow_303_98" result="shape"/>
</filter>
<clipPath id="clip0_303_98">
<path d="M5368.69 3100.52C5368.69 3060.16 5401.41 3027.44 5441.77 3027.44H5645.82C5686.18 3027.44 5718.9 3060.16 5718.9 3100.52V3304.08C5718.9 3344.44 5686.18 3377.16 5645.82 3377.16H5441.77C5401.41 3377.16 5368.69 3344.44 5368.69 3304.08V3100.52Z" fill="white"/>
</clipPath>
</defs>
</svg>
